<?xml version="1.0" standalone="no"?>
<!DOCTYPE svg PUBLIC "-//W3C//DTD SVG 1.1//EN" "http://www.w3.org/Graphics/SVG/1.1/DTD/svg11.dtd" >
<svg xmlns="http://www.w3.org/2000/svg">
<metadata>
Created by FontPrep 20130207 at Fri Feb 10 14:19:46 2017
 By Lowery, Justin
Copyright (c) 2014 by PYRS Fontlab Ltd. / Made with FontLab. All rights reserved.
</metadata>
<defs>
<font id="3bf3a13ca2c904396c6f64deca6526e5" horiz-adv-x='1024' >
  <font-face 
    font-family="Icons-Regular-Regular"
    font-weight="400"
    font-stretch="normal"
    units-per-em="2048"
    panose-1="0 0 5 0 0 0 0 0 0 0"
    ascent="1638"
    descent="-410"
    x-height="1079"
    cap-height="1511"
    bbox="-74 -493.067 4418.12 1721"
    underline-thickness="102"
    underline-position="0"
    unicode-range="U+000D-E540"
  />
<missing-glyph horiz-adv-x="1024" 
d="M164 102h696l-348 523zM573 717l349 -522v1044zM102 1239v-1044l349 522zM512 809l348 522h-696zM0 0v1434h1024v-1434h-1024z" />
    <glyph glyph-name=".notdef" horiz-adv-x="1024" 
d="M164 102h696l-348 523zM573 717l349 -522v1044zM102 1239v-1044l349 522zM512 809l348 522h-696zM0 0v1434h1024v-1434h-1024z" />
    <glyph glyph-name="uni0000" horiz-adv-x="0" 
 />
    <glyph glyph-name="uni0000" horiz-adv-x="0" 
 />
    <glyph glyph-name="uni000D" unicode="&#xd;" horiz-adv-x="681" 
 />
    <glyph glyph-name="O" unicode="O" horiz-adv-x="1228" 
d="M1094 732q0 304 -129 450q-115 156 -343 156t-366 -156q-125 -176 -125 -458t141 -425q116 -158 346 -158t347 158q129 129 129 433zM1296 726q0 -185 -49 -314q-46 -143 -139 -238q-154 -205 -491 -205q-159 0 -279 47q-135 65 -226 160t-139 236q-47 154 -47 318
t47 323q104 311 365 395q104 63 278 63t285 -63q141 -52 207 -141q92 -93 140 -245t48 -336z" />
    <glyph glyph-name="X" unicode="X" horiz-adv-x="1228" 
d="M494 737l-504 744h227l397 -604l408 604h215l-510 -731l510 -750h-227l-404 610l-416 -610h-210z" />
    <glyph glyph-name="j" unicode="j" horiz-adv-x="1228" 
d="M528 950h-227v156h414v-1122q0 -185 -99 -295q-95 -95 -264 -97q-56 0 -102 11q-88 12 -109 18v174h13q4 -1 52 -17t94 -21q48 -5 106 13t92 66q18 40 24 84t6 146v884zM727 1481v-193h-211v193h211z" />
    <glyph glyph-name="l" unicode="l" horiz-adv-x="1226" 
d="M694 1575v-1571h-182v1571h182z" />
    <glyph glyph-name="o" unicode="o" horiz-adv-x="1228" 
d="M915 562q0 200 -86 306q-33 47 -93 76t-124 29q-134 0 -231 -105q-88 -110 -88 -308t88 -314q81 -100 235 -100t213 100q86 116 86 316zM1104 551q0 -265 -127 -420q-145 -145 -374 -145t-353 145q-144 143 -144 419t144 423q124 141 354 141t373 -141q127 -157 127 -422
z" />
    <glyph glyph-name="x" unicode="x" horiz-adv-x="1228" 
d="M319 1079l310 -393l309 393h205l-430 -530l430 -547h-223l-308 428l-309 -428h-221l428 547l-412 530h221z" />
    <glyph glyph-name="bar" unicode="|" horiz-adv-x="1228" 
d="M698 1587v-1876h-170v1876h170z" />
    <glyph glyph-name="uniE000" unicode="&#xe000;" horiz-adv-x="2621" 
d="M2089 246q51 0 87 -36t36 -87t-36 -87t-87 -36h-1557q-51 0 -87 36t-35 87q0 51 36 87t86 36h1557zM2089 819q51 0 87 -36t36 -87t-36 -87t-87 -36h-1557q-51 0 -87 36t-35 87q0 51 36 87t86 36h1557zM2089 1393q51 0 87 -36t36 -87t-36 -87t-87 -36h-1557q-51 0 -87 36
t-35 87q0 51 36 87t86 36h1557z" />
    <glyph glyph-name="uniE001" unicode="&#xe001;" horiz-adv-x="1064" 
d="M532 217q52 0 88 -36t36 -87t-36 -87t-88 -36t-88 36t-34 87q0 51 36 87q34 36 86 36zM532 791q52 0 88 -36t36 -87t-36 -87t-88 -36t-88 36t-34 87q0 51 36 87q34 36 86 36zM532 1364q52 0 88 -36t36 -87t-36 -87t-88 -36t-88 36t-34 87q0 51 36 87q34 36 86 36z" />
    <glyph glyph-name="uniE002" unicode="&#xe002;" horiz-adv-x="983" 
d="M573 164v-164h-163v164h163zM573 573v-163h-163v163h163zM573 983v-164h-163v164h163z" />
    <glyph glyph-name="uniE003" unicode="&#xe003;" horiz-adv-x="2007" 
d="M1698 18q0 -18 -11 -29t-29 -11t-30 12l-624 624l-627 -626q-11 -12 -29 -12t-29 12q-29 28 0 57l625 627l-625 624q-17 22 -11 42t29 28t42 -10l625 -627l626 627q10 12 28 12t30 -12q29 -29 0 -58l-627 -626l625 -625q12 -11 12 -29z" />
    <glyph glyph-name="uniE004" unicode="&#xe004;" horiz-adv-x="1925" 
d="M1618 586h-614v-615h-82v615h-615v82h615v614h82v-614h614v-82z" />
    <glyph glyph-name="uniE005" unicode="&#xe005;" horiz-adv-x="2011" 
d="M1007 164q-15 0 -32 12l-656 655q-29 29 0 58q9 12 27 12t31 -12l629 -627l628 627q10 12 28 12t30 -12q29 -29 0 -58l-658 -655q-12 -12 -27 -12z" />
    <glyph glyph-name="uniE006" unicode="&#xe006;" horiz-adv-x="2011" 
d="M1004 946q18 0 30 -12l658 -655q29 -29 0 -58q-12 -12 -30 -12t-28 12l-628 627l-629 -627q-11 -12 -29 -12t-29 12q-29 29 0 58l656 655h2q9 12 27 12z" />
    <glyph glyph-name="uniE007" unicode="&#xe007;" horiz-adv-x="1398" 
d="M1050 -6q-18 0 -28 12l-703 707q-12 11 -12 27t12 30l703 707q10 12 28 12t29 -12q29 -29 0 -58l-673 -678l673 -678q29 -29 0 -57q-11 -12 -29 -12z" />
    <glyph glyph-name="uniE008" unicode="&#xe008;" horiz-adv-x="1431" 
d="M414 1489q18 0 28 -12l703 -707q12 -12 12 -28t-12 -29l-703 -707q-10 -12 -28 -12t-29 12q-29 28 0 57l674 678l-674 678q-29 29 0 58q11 12 29 12z" />
    <glyph glyph-name="uniE009" unicode="&#xe009;" horiz-adv-x="1515" 
d="M756 408q-16 0 -29 12l-408 405q-16 23 -11 43t28 28t41 -11l379 -379l383 381q20 16 40 11q19 -5 27 -28t-10 -41l-412 -409q-12 -12 -28 -12z" />
    <glyph glyph-name="uniE010" unicode="&#xe010;" horiz-adv-x="1515" 
d="M758 944q18 0 30 -12l408 -408q12 -10 12 -27t-12 -30q-29 -29 -59 0l-379 379l-381 -381q-11 -12 -29 -12t-29 12q-29 29 0 57l410 410q11 12 29 12z" />
    <glyph glyph-name="uniE011" unicode="&#xe011;" horiz-adv-x="1220" 
d="M307 554q0 16 12 30l523 516q12 12 29 12t30 -12q29 -29 0 -58l-495 -489l495 -496q17 -20 11 -40q-6 -19 -28 -27t-40 10l-525 526q-12 12 -12 28z" />
    <glyph glyph-name="uniE012" unicode="&#xe012;" horiz-adv-x="1220" 
d="M913 554q0 -16 -12 -30l-524 -524q-23 -23 -41 -12q-53 33 -17 69l496 494l-496 489q-23 23 -12 41q33 53 72 17l522 -516q12 -12 12 -28z" />
    <glyph glyph-name="uniE013" unicode="&#xe013;" horiz-adv-x="1269" 
d="M307 588q-1 18 11 29t30 11t31 -12l256 -256l258 258q9 12 27 12t30 -12q28 -28 0 -57l-258 -258l256 -256q12 -11 12 -29t-12 -28q-28 -28 -57 0l-256 256l-258 -258q-11 -12 -29 -12t-29 12q-29 28 0 57l256 258l-256 256q-12 11 -12 29z" />
    <glyph glyph-name="uniE014" unicode="&#xe014;" horiz-adv-x="1802" 
d="M1495 796q0 -18 -12 -28l-781 -780q-28 -28 -57 0l-326 327q-29 29 0 60q29 26 58 0l299 -299l749 749q11 12 29 12t29 -12q12 -11 12 -29z" />
    <glyph glyph-name="uniE015" unicode="&#xe015;" horiz-adv-x="2035" 
d="M1729 994q0 -34 -25 -58l-938 -938q0 -2 -2 -2q-24 -25 -58 -25t-59 25l-315 315q-25 25 -25 59q1 34 25 58t58 24t59 -24l258 -258l880 883q25 25 59 25t58 -25t25 -59z" />
    <glyph glyph-name="uniE016" unicode="&#xe016;" horiz-adv-x="1966" 
d="M860 21q17 0 29 12l328 327q29 29 0 58l-328 327q-23 23 -41 12q-53 -33 -17 -69l299 -299l-299 -299q-29 -28 0 -57q12 -12 29 -12zM983 1004q125 0 239 -48t196 -132q82 -82 130 -196t49 -239q-1 -125 -49 -239t-130 -196t-196 -130t-239 -49q-125 1 -239 49t-196 130
t-130 196t-49 239q0 255 180 435t434 180z" />
    <glyph glyph-name="uniE017" unicode="&#xe017;" 
d="M1118 33q0 33 22 55t53 22q29 0 53 -24t24 -54t-23 -52t-53 -24t-53 22q-23 23 -23 55zM1249 207h-119v53q0 45 23 94l23 23q25 27 77 82q57 49 57 120t-59 95q-24 10 -47 10q-95 0 -123 -88q-12 -18 -37 -26q-26 -8 -46 4t-23 49q-3 38 28 81q67 91 203 93
q180 0 221 -152q28 -118 -41 -199l-108 -110q-17 -17 -27 -55l-2 -39v-35zM1925 410q0 302 -215 522q-220 215 -523 215t-521 -215q-215 -220 -215 -522t215 -523q142 -140 332 -190q190 -51 378 -1q190 50 334 191q215 221 215 523zM1188 1229q224 1 412 -109t298 -298
t109 -412q0 -167 -65 -319q-64 -151 -174 -261t-262 -175t-318 -65q-167 0 -319 65q-151 65 -261 175t-174 261q-64 152 -65 319q1 167 65 319q64 151 174 261t261 174q152 64 319 65z" />
    <glyph glyph-name="uniE018" unicode="&#xe018;" 
d="M1194 -43q32 0 54 23q22 24 22 54t-23 52t-53 23t-54 -21q-22 -22 -22 -56q0 -32 23 -52q21 -23 53 -23zM1434 584q0 142 -119 192q-47 20 -111 20t-117 -24t-72 -53q-19 -27 -30 -51t-9 -54t28 -43q16 -10 40 -2t37 27q28 88 123 88q24 0 47 -10q59 -26 59 -96t-57 -119
q-25 -25 -77 -82l-23 -23q-22 -45 -23 -94v-53h119v35q-1 54 7 64t12 17t8 11l110 112q48 56 48 138zM1188 1229q224 1 412 -109t298 -298t109 -412q0 -167 -65 -319q-64 -151 -174 -261t-262 -175t-318 -65q-167 0 -319 65q-151 65 -261 175t-174 261q-64 152 -65 319
q1 167 65 319q64 151 174 261t261 174q152 64 319 65z" />
    <glyph glyph-name="uniE019" unicode="&#xe019;" 
d="M1270 377q0 33 -24 57t-58 24q-32 0 -58 -24q-26 -25 -24 -57v-336q0 -33 24 -57t58 -24t58 24t24 57v336zM1188 604q42 0 70 29t28 69t-29 68t-69 29q-40 0 -69 -28q-29 -27 -29 -69t28 -70t70 -28zM1188 1229q224 1 412 -109t298 -298t109 -412q0 -167 -65 -319
q-64 -151 -174 -261t-262 -175t-318 -65q-167 0 -319 65q-151 65 -261 175t-174 261q-64 152 -65 319q1 167 65 319q64 151 174 261t261 174q152 64 319 65z" />
    <glyph glyph-name="uniE020" unicode="&#xe020;" 
d="M860 330q-34 0 -58 -24t-24 -58t23 -58l166 -165q25 -25 58 -25t58 25l490 491q25 24 25 58t-25 58t-59 24t-58 -23l-432 -434l-106 106q-24 25 -58 25zM1188 1229q167 0 319 -65q151 -65 261 -175q110 -109 174 -261t65 -318q0 -166 -65 -318q-64 -152 -174 -262
t-262 -175t-318 -65q-167 0 -319 65q-151 65 -261 175t-175 262t-65 319t65 319t175 260q110 110 261 174q152 64 319 65z" />
    <glyph glyph-name="uniE021" unicode="&#xe021;" 
d="M1188 -98q42 0 70 28t28 70t-29 70t-69 28t-69 -28t-29 -70t28 -70t70 -28zM1106 324q0 -34 24 -58t58 -24t58 24t24 58v499q0 33 -25 58t-57 25t-57 -25t-25 -58v-499zM1188 1229q224 1 412 -109t298 -298t109 -412q0 -167 -65 -319q-64 -151 -174 -261t-262 -175
t-318 -65q-167 0 -319 65q-151 65 -261 175t-174 261q-64 152 -65 319q1 167 65 319q64 151 174 261t261 174q152 64 319 65z" />
    <glyph glyph-name="uniE022" unicode="&#xe022;" 
d="M1188 -262q42 0 70 29t28 69t-29 69t-69 29t-69 -28t-29 -70t28 -70t70 -28zM1106 160q0 -34 24 -58t58 -24t58 24t24 58v499q0 33 -25 58t-57 25t-57 -25t-25 -58v-499zM410 -410q-70 0 -94 43t12 103l778 1351q33 59 82 59t82 -59l780 -1351q35 -58 10 -102t-92 -44
h-1558z" />
    <glyph glyph-name="uniE023" unicode="&#xe023;" 
d="M1221 0q0 -33 -33 -33t-33 33v557q0 33 33 33t33 -33v-557zM1188 819q16 -1 28 -13q28 -29 0 -57t-57 1q-12 12 -12 28t12 29q13 12 29 12zM1188 1196q-160 0 -306 -62t-250 -168q-106 -106 -168 -250q-62 -146 -62 -306t62 -306t168 -250q106 -106 250 -168
q146 -62 306 -62t306 62t250 168q106 106 168 250q62 146 62 306q0 326 -230 556t-556 230zM1188 1229q224 1 412 -109t298 -298t109 -412q0 -167 -65 -319q-64 -151 -174 -261t-262 -175t-318 -65q-167 0 -319 65q-151 65 -261 175t-174 261q-64 152 -65 319q1 167 65 319
q64 151 174 261t261 174q152 64 319 65z" />
    <glyph glyph-name="uniE024" unicode="&#xe024;" 
d="M974 0q-12 0 -22 10l-209 207q-23 25 0 47t48 0l184 -184l600 598q23 27 45 0q27 -22 0 -45l-623 -623q-11 -10 -23 -10zM1188 1196q-160 0 -306 -62t-250 -168q-106 -106 -168 -250q-62 -146 -62 -306t62 -306t168 -250q106 -106 250 -168q146 -62 306 -62t306 62
t250 168q106 106 168 250q62 146 62 306q0 326 -230 556t-556 230zM1188 1229q224 1 412 -109t298 -298t109 -412q0 -167 -65 -319q-64 -151 -174 -261t-262 -175t-318 -65q-167 0 -319 65q-151 65 -261 175t-174 261q-64 152 -65 319q1 167 65 319q64 151 174 261t261 174
q152 64 319 65z" />
    <glyph glyph-name="uniE025" unicode="&#xe025;" 
d="M1188 0q16 0 28 -12q27 -27 1 -58q-13 -12 -29 -12t-28 12t-13 28q0 16 12 30q13 12 29 12zM1221 180q0 -33 -33 -33t-33 33v688q0 33 33 33t33 -33v-688zM1188 1196q-160 0 -306 -62t-250 -168q-106 -106 -168 -250q-62 -146 -62 -306t62 -306t168 -250
q106 -106 250 -168q146 -62 306 -62t306 62t250 168q106 106 168 250q62 146 62 306q0 326 -230 556t-556 230zM1188 1229q224 1 412 -109t298 -298t109 -412q0 -167 -65 -319q-64 -151 -174 -261t-262 -175t-318 -65q-167 0 -319 65q-151 65 -261 175t-174 261
q-64 152 -65 319q1 167 65 319q64 151 174 261t261 174q152 64 319 65z" />
    <glyph glyph-name="uniE026" unicode="&#xe026;" horiz-adv-x="2453" 
d="M1228 -82q16 0 27 -12q29 -29 0 -58q-12 -12 -28 -12q-17 0 -29 12t-12 28t12 30q14 12 30 12zM1260 98q0 -32 -33 -32t-33 32v688q0 33 33 33t33 -33v-688zM1227 1196q-31 0 -58 -45l-813 -1423q-27 -45 -10 -78q16 -27 68 -27h1626q48 0 67 27q14 32 -10 78l-813 1423
q-26 45 -57 45zM1228 1229q50 0 83 -62l815 -1423q35 -62 9 -108t-95 -46h-1626q-70 0 -96 45t10 109l813 1423q37 62 87 62z" />
    <glyph glyph-name="uniE027" unicode="&#xe027;" horiz-adv-x="4827" 
d="M2346 210q32 0 46 -20q18 -18 12 -51q-11 -68 -82 -67q-33 0 -49 16q-18 24 -13 54t29 49q25 19 57 19zM1241 72q-33 0 -49 16q-18 24 -14 54t28 49t56 19t47 -20q18 -18 12 -51q-10 -67 -80 -67zM3901 0h58q10 0 10 8l33 211h51q10 0 10 8l8 47q0 6 -6 7h-178
q-9 0 -10 -9l-6 -47q-1 -2 1 -4t5 -2h53l-35 -211q0 -8 6 -8zM3557 0q6 0 11 8l6 47q5 8 -4 8h-82l6 37q1 7 10 9h66q10 0 10 10l8 47q0 6 -6 6h-76l6 39q0 8 11 8h69q10 0 10 8l9 47q0 6 -7 7h-143q-10 0 -10 -9l-43 -264q0 -8 6 -8h143zM3183 0q5 0 10 8l6 47q0 8 -6 8
h-80l6 37q0 8 10 9h66q10 0 10 10l8 47q0 6 -6 6h-76l7 39q0 8 8 8h71q6 0 11 8l6 47q0 6 -6 7h-146q-8 0 -10 -9l-41 -264q-5 -8 6 -8h146zM3371 0q5 0 10 8l6 47q0 8 -6 8h-80l33 211q0 8 -6 9h-57q-9 0 -11 -11l-41 -264q0 -8 7 -8h145zM1561 -98q10 0 16 8l244 352
q4 6 1 13t-12 8h-71q-11 0 -19 -11l-102 -149l-43 143q-4 15 -21 17h-69q-16 0 -12 -19l79 -235l-73 -107q-4 -8 -1 -14t11 -6h72zM2333 289q-65 -1 -113 -43t-56 -106q-10 -64 24 -105t96 -41t100 41l-4 -21q0 -14 12 -14h68q16 0 20 18l37 248q4 16 -12 17h-72
q-12 0 -12 -13l-4 -20q-19 39 -84 39zM1202 -6q64 0 98 41l-4 -21q0 -14 13 -14h67q16 0 21 18l39 248q4 15 -13 17h-73q-10 0 -17 -33q-19 38 -84 38t-113 -42t-58 -106t26 -105q34 -41 98 -41zM2908 -6q58 0 92 38q32 38 22 82t-54 58q-55 12 -46 39q6 17 31 17t36 -10
t15 -3l31 45q5 8 -2 8q-89 47 -150 -5q-30 -25 -38 -67q-7 -42 9 -57t44 -21t40 -14t9 -20q-6 -29 -39 -29t-57 25q-4 4 -8 -2l-35 -47q-2 -4 2 -8q40 -29 98 -29zM3744 -6q26 0 46 7t21 11l11 66q1 2 -1 6t-20 -8q-17 -12 -47 -12t-48 21q-17 23 -12 55t28 55q25 23 57 23
q31 0 45 -14t18 -3l10 63q0 25 -64 27q-64 3 -115 -35t-61 -106t24 -112t108 -44zM1987 336h10q51 0 65 -12q20 -37 1 -64q-17 -27 -39 -31t-44 -4h-22l14 103q2 8 15 8zM903 336h10q53 0 68 -12q18 -39 0 -65q-17 -27 -39 -31t-45 -3h-23l15 103q2 8 14 8zM2603 0
q19 0 23 18l61 390q5 14 -12 14h-72q-7 0 -12 -12l-64 -396q0 -14 15 -14h61zM1909 0q14 0 14 12l19 111q0 16 20 16h47q150 0 174 146q17 137 -131 137h-151q-20 0 -21 -19l-63 -389q0 -14 14 -14h78zM819 0q19 0 21 18l18 105q0 16 21 16h49q146 0 172 146q8 65 -24 101
t-105 36h-154q-20 0 -20 -19l-62 -389q0 -14 15 -14h69zM4389 702q31 0 29 -34l-144 -908q-6 -41 -49 -41h-3785q-14 1 -23 11t-7 24l145 924q4 25 29 24h3805z" />
    <glyph glyph-name="uniE028" unicode="&#xe028;" horiz-adv-x="3354" 
d="M1507 420h-86q-11 0 -16 -14l-64 -396q0 -10 11 -10h215q15 0 16 12l10 70q5 8 -8 8h-121l49 320q6 10 -6 10zM2343 422q-9 0 -14 -14l-11 -70q0 -8 9 -8h79l-51 -318q0 -12 8 -12h88q13 0 15 14l51 316h76q14 0 14 10l12 72q0 10 -10 10h-266zM1901 330q12 0 16 10
l10 72q0 10 -8 10h-217q-9 0 -14 -14l-64 -396q0 -12 8 -12h217q13 0 15 14l12 70q0 8 -10 8h-119l10 60q5 14 15 14h96q12 0 16 12l10 70q4 10 -8 10h-112l10 59q0 13 14 13h103zM1339 330q11 0 15 10l8 72q6 10 -8 10h-215q-12 0 -17 -14l-61 -396q0 -12 10 -12h215
q14 0 14 14l13 70q0 8 -10 8h-119l8 60q5 14 16 14h99q9 0 14 12l10 70q4 10 -8 10h-115l11 59q0 11 14 13h106zM943 340q43 0 59 -13t20 -3l47 65q6 6 -2 14q-53 29 -119 29t-112 -38t-54 -94q-8 -58 11 -84q20 -26 67 -39q48 -13 62 -25t12 -27q-6 -41 -58 -41t-85 35
q-8 5 -13 -2l-51 -72q-4 -7 2 -12q63 -43 135 -43t125 41q57 41 64 115q3 34 -19 64q-22 32 -69 48l-27 8q-46 16 -42 45t47 29zM2130 -10q22 0 90 16q10 4 10 12l17 97q0 6 -5 9t-12 -1q-40 -29 -86 -29t-72 33t-18 83t44 84t86 34q48 0 75 -31q16 -10 16 6l17 92
q2 14 -13 23q-144 38 -253 -31q-81 -51 -99 -176q-10 -111 69 -178q49 -43 134 -43zM2916 702q31 0 29 -34l-143 -908q-5 -41 -47 -41h-2315q-14 1 -22 11t-6 22l145 926q5 24 31 24h2328z" />
    <glyph glyph-name="uniE029" unicode="&#xe029;" horiz-adv-x="1427" 
d="M688 270q319 0 371 295q83 -55 55 -200q-46 -232 -301 -234h-25q-28 0 -36 -33l-33 -202q-7 -33 -35 -33h-137q-23 0 -23 26l58 361q5 20 22 20h84zM604 309q-56 0 -63 -55l-43 -283h-164q-31 0 -25 29l123 784q7 37 41 37h281q164 0 232 -80t18 -233q-69 -199 -312 -199
h-88z" />
    <glyph glyph-name="uniE030" unicode="&#xe030;" horiz-adv-x="2398" 
d="M1843 137l-10 228l-102 -228h112zM1989 -27h-138l-6 72h-159l-33 -72h-144l260 486h175zM1169 459l-149 -486h-129l151 486h127zM973 459l-281 -486h-135l-45 396q-8 41 -26 53t-76 12l4 25h229l12 -316l176 316h142zM1311 -43q-100 0 -201 59l61 99q77 -51 131 -51
t70 24q15 24 3 38t-54 42l-31 18q-57 40 -75 90q-17 50 1 92t68 72t133 29q82 0 160 -57l-72 -88q-55 47 -103 47t-59 -29q-23 -18 33 -57q6 -8 10 -9l33 -18q133 -84 92 -176q-51 -125 -200 -125z" />
    <glyph glyph-name="uniE031" unicode="&#xe031;" horiz-adv-x="2111" 
d="M1350 154q0 30 36 28h17q-5 -45 -37 -45q-16 1 -16 17zM645 154q0 30 41 28h8q0 -45 -28 -45q-21 1 -21 17zM1616 236q24 0 24 -28t-10 -46t-26 -19q-20 1 -20 47t32 46zM1038 211h-47q3 29 25 29t22 -21v-8zM1548 279q-18 0 -37 -31l5 26h-48l-24 -168h51q11 107 25 116
q4 3 12 3h4q1 23 16 54h-4zM1180 279q-12 0 -37 -31v26h-35l-27 -168h41q12 79 20 100t23 19h4q6 38 17 54h-6zM1018 139q-30 0 -31 29v10h90q4 15 4 37q0 66 -61 66q-36 0 -58 -29t-22 -72q0 -78 78 -78q10 0 43 9l12 39q-25 -11 -55 -11zM785 140q-22 0 -40 7l-12 -36h6
l11 -5h34q68 0 68 52q0 37 -29 49q-26 8 -24 16q0 23 55 13l6 43l-37 2q-43 -1 -59 -23t-6 -47t33 -35q40 -36 -6 -36zM1446 240q0 20 -26 35t-83 -3l-6 -43h4l8 2q7 9 35 9t29 -17v-10l-23 2q-37 0 -62 -21q-26 -22 -14 -56t40 -35t51 22l-2 -19h37v9l2 12v10l8 60
q2 23 2 43zM606 147q0 -45 39 -45q29 0 47 23v-19h35v5l2 4l2 22l10 60q4 15 4 35q-1 20 -13 34q-29 32 -99 6l-8 -43h4l10 2q7 9 36 9t27 -17q0 -2 -2 -10l-18 2q-76 0 -76 -68zM922 141q-14 0 -15 13v10l11 67h22l6 43h-22l6 25h-47l-19 -113l-2 -18l-2 -14v-15
q0 -37 31 -37q11 0 37 9l6 32q-6 -2 -12 -2zM1600 281q-24 -1 -46 -35t-22 -72q0 -68 55 -68q27 0 39 19l-2 -19h45l31 209h-39l-8 -57q-29 23 -53 23zM588 106l30 209h-67l-43 -129l-2 129h-64l-36 -209h43l22 160l6 -160h33l55 160l-26 -160h49zM1260 142q-12 0 -24 16
t-12 48t25 58q26 25 72 -2l6 43q-1 4 -8 4l-21 6q-64 6 -94 -29q-29 -36 -28 -93q0 -89 81 -91q9 1 35 9l8 43q-28 -12 -40 -12zM1743 214q1 -166 -121 -288t-277 -123q-155 0 -255 76q88 88 118 184h-41q-38 -97 -112 -159q-79 73 -113 159h-45q37 -102 127 -184
q-101 -76 -259 -76q-103 1 -195 55t-146 149q-55 95 -55 206q-1 171 119 291t275 119q155 0 261 -76q-93 -86 -133 -205h45q40 110 119 180q87 -77 119 -180h43q-33 117 -127 205q103 76 257 76q154 1 274 -119q55 -54 89 -132q34 -76 33 -158z" />
    <glyph glyph-name="uniE032" unicode="&#xe032;" horiz-adv-x="2111" 
d="M799 154q0 30 45 28h10q0 -43 -33 -43q-22 1 -22 15zM1526 238q28 0 26 -35v-19q-4 -18 -16 -30t-23 -13q-27 1 -29 31t11 48t31 18zM1008 240q27 0 24 -21v-10h-57q6 31 33 31zM1436 276q0 1 -2 3q-23 0 -48 -31l9 28h-47l-31 -170h49q12 76 22 99t29 22h6l7 -2l18 49
l-6 2h-6zM1128 104q80 0 80 54q0 38 -31 48t-28 21q0 10 19 10t42 -4l7 43q-15 3 -43 5q-78 0 -78 -60q0 -29 32 -43t33 -26t-27 -12t-49 5l-8 -34l10 -5h15q16 -2 26 -2zM1507 102q103 0 103 114q0 24 -24 45t-64 21t-68 -30q-28 -29 -27 -72q0 -78 80 -78zM1081 230
q0 26 -27 42t-59 8t-47 -26t-22 -42t-5 -48q3 -24 25 -42t58 -18t53 7l14 39q-102 -28 -102 18v8h106q6 28 6 54zM752 147q0 -43 43 -43q38 0 57 19l-2 -17h41v11l18 80q2 24 2 30q0 78 -129 43l-6 -41q14 9 50 9t36 -15q0 -2 -2 -10l-18 2q-90 0 -90 -68zM1262 104
q22 0 34 5l7 34h-5l-8 -2q-16 0 -16 15v6l14 69h29l6 45h-31l8 37h-47l-22 -127l-6 -18l-4 -14l-2 -15q0 -35 43 -35zM725 106l41 207h-84l-57 -127l-4 127h-80l-39 -207h47l33 160l8 -160h43l72 160l-29 -160h49zM1329 623q172 0 293 -120t121 -290t-121 -290t-293 -120
q-136 0 -242 76q90 85 123 184h-41q-39 -89 -114 -157q-80 74 -113 157h-45q43 -106 127 -184q-106 -76 -242 -76q-172 0 -293 120t-120 290t121 290t292 120q136 0 242 -76q-94 -88 -133 -203h47q28 94 117 178q88 -82 121 -178h41q-33 114 -130 203q106 76 242 76z" />
    <glyph glyph-name="uniE033" unicode="&#xe033;" horiz-adv-x="2580" 
d="M1522 115v65h178v72h-178v63h207l88 -100l-93 -100h-202zM692 326l56 -138h-113zM1448 387v-348h332l104 115l101 -115h106l-156 176l158 172h-102l-107 -113l-102 113h-334zM905 387v-328l-141 328h-123l-149 -348h90l30 80h176l31 -80h168v272l121 -272h74l118 272
v-272h86v348h-139l-98 -235l-109 235h-135zM2171 -29h-221l-68 78l-74 -78h-567v62l-24 -62h-146l-27 62v-62h-274l-35 78h-69l-33 -78h-223v68l182 416h219l27 -58v58h252l55 -123l53 123h621l67 -70l66 70h219v-88l-139 -152l139 -156v-88z" />
    <glyph glyph-name="uniE034" unicode="&#xe034;" horiz-adv-x="2791" 
d="M606 213q0 45 -35 80q-30 23 -84 22h-16v-206h16q53 -1 84 24q35 35 35 80zM2214 319v-94h18q36 -1 52 23t1 48t-53 23h-18zM2214 180v-125h-64v316h95q42 1 70 -17q27 -18 35 -43t4 -51t-24 -47q-20 -20 -49 -25l101 -133h-74l-88 125h-6zM1939 371h172v-56h-112v-67
h110v-55h-110v-84h112v-54h-172v316zM1843 371h66l-135 -322h-33l-135 322h69l84 -211zM698 55v316h60v-316h-60zM410 55v316h90q74 0 122 -45q48 -44 48 -114t-52 -114t-118 -43h-90zM1284 212q0 70 50 116t120 47q70 0 118 -47t48 -116t-48 -116t-120 -47t-120 47
q-48 46 -48 116zM860 289q0 -25 50 -41t70 -38t19 -63t-33 -69t-88 -29q-56 0 -96 60l39 38q19 -43 67 -43t48 46q0 30 -59 47q-80 32 -80 90q1 37 29 63t75 26q46 0 86 -36l-31 -43q-26 27 -51 27q-45 0 -45 -35zM1020 212q0 69 48 117t118 48q37 0 76 -21v-69
q-34 33 -78 33t-73 -31q-30 -31 -30 -77t30 -76t72 -30t79 31v-69q-40 -18 -94 -18t-102 46q-46 46 -46 116z" />
    <glyph glyph-name="uniE035" unicode="&#xe035;" horiz-adv-x="1966" 
d="M1085 70q0 20 -20 20h-471q-20 0 -20 -20t20 -21h471q20 1 20 21zM1270 131q-16 0 -28 -12t-13 -29v-41q0 -17 12 -29t29 -12h82q16 0 28 12t13 29v41q-1 16 -13 28t-28 13h-82zM1372 213q12 0 18 10q6 11 0 21t-18 10h-778q-20 0 -20 -20t20 -21h778zM1475 582
q33 0 57 -24t24 -58v-574q0 -34 -24 -58t-57 -24h-983q-35 0 -59 24t-23 58v574q0 34 24 58t58 24h983z" />
    <glyph glyph-name="uniE036" unicode="&#xe036;" horiz-adv-x="1720" 
d="M1126 420q-20 0 -20 20v21h-82v-21q0 -20 -20 -20v-328q20 0 20 -20v-21h82v21q0 20 20 20v328zM901 461h-82v-21q0 -20 -20 -20v-328q20 0 20 -20v-21h82v21q0 20 21 20v328q-19 0 -21 20v21zM594 92q20 0 20 -20v-21h82v21q0 20 21 20v328q-19 0 -21 20v21h-82v-21
q0 -20 -20 -20v-328zM1290 -31h41q19 0 21 -20v-82q0 -19 -21 -21h-942q-20 0 -20 21v82q0 20 20 20h41v62q0 20 21 20h41v21q0 20 20 20v328q-20 0 -20 20v21h-62q-20 0 -20 20v41q0 19 20 21l434 164l426 -164q20 0 21 -21v-41q0 -20 -21 -20h-61v-21q0 -20 -21 -20v-328
q19 0 21 -20v-21h43q18 0 18 -20v-62z" />
    <glyph glyph-name="uniE037" unicode="&#xe037;" horiz-adv-x="2547" 
d="M2241 -266q0 -11 -11 -13h-1913q-10 0 -10 13v76q0 84 72 118l604 308q41 23 47 65l21 131h2q-75 69 -115 176l-51 27q-19 11 -23 31l-30 184v14q0 53 51 64q-26 172 -21 252q4 80 28 133t67 107q89 110 309 186q28 -97 133 -152q181 -95 219 -138q39 -44 46 -85
q8 -43 10 -81t-17 -222q53 -12 53 -64l-2 -12v-2l-31 -184q-5 -21 -22 -31l-47 -25q-40 -109 -115 -178l21 -131q10 -43 47 -65l606 -308q72 -38 72 -118v-76z" />
    <glyph glyph-name="uniE038" unicode="&#xe038;" horiz-adv-x="2547" 
d="M1946 590h-131v49h131v131h49v-131h131v-49h-131v-131h-49v131zM2241 -266q0 -11 -11 -13h-1913q-10 0 -10 13v76q0 84 72 118l604 308q41 23 47 65l21 131h2q-75 69 -115 176l-51 27q-19 11 -23 31l-30 184v14q0 53 51 64q-26 172 -21 252q4 80 28 133t67 107
q89 110 309 186q28 -97 133 -152q181 -95 219 -138q39 -44 46 -85q8 -43 10 -81t-17 -222q53 -12 53 -64l-2 -12v-2l-31 -184q-5 -21 -22 -31l-47 -25q-40 -109 -115 -178l21 -131q11 -43 47 -65l606 -308q72 -38 72 -118v-76z" />
    <glyph glyph-name="uniE039" unicode="&#xe039;" horiz-adv-x="2041" 
d="M1008 -29q-68 1 -116 45q-50 44 -61 111q-203 7 -337 19t-171 43q-38 31 14 149q13 30 45 92q32 64 66 194t35 257q-1 264 107 425t278 160q0 101 80 130q42 15 65 14q158 0 161 -144q172 0 280 -161t107 -424q1 -127 35 -259t66 -194q51 -97 69 -156q18 -60 -17 -88
q-34 -27 -139 -34q-292 -20 -389 -23q-10 -69 -60 -113t-118 -43z" />
    <glyph glyph-name="uniE040" unicode="&#xe040;" horiz-adv-x="2334" 
d="M872 806q0 -110 92 -202t202 -92q112 0 204 91t92 202t-92 202t-203 91t-203 -91t-92 -201zM1374 27q0 -23 -16 -39t-39 -17h-307q-24 1 -40 17t-16 39v174q-113 40 -200 116l-150 -86q-18 -12 -42 -6t-36 27l-151 266q-12 20 -7 43t25 35l154 80q-12 51 -12 118t12 121
l-152 84q-45 31 -18 78l153 266q10 19 37 25t47 -6l140 -102q132 114 207 139v170q1 25 23 47t44 22h275q23 0 47 -22t22 -47v-170q114 -44 205 -125l150 86q20 12 43 6t32 -25l156 -268q25 -51 -23 -78l-149 -88q12 -51 12 -113t-12 -116l147 -86q21 -10 27 -33t-6 -43
l-154 -268q-10 -20 -33 -26t-43 5l-151 88q-84 -75 -201 -116v-172z" />
    <glyph glyph-name="uniE041" unicode="&#xe041;" horiz-adv-x="2252" 
d="M1128 627q430 -1 624 -153t194 -503h-1639q-1 354 195 505t626 151zM1126 709q-122 1 -226 61t-164 164t-60 226q0 186 132 318t318 132t318 -132t132 -318t-132 -319q-132 -132 -318 -132z" />
    <glyph glyph-name="uniE042" unicode="&#xe042;" horiz-adv-x="2088" 
d="M1044 1118q228 0 394 56q164 56 164 134t-164 133q-164 56 -394 56q-228 0 -392 -56q-164 -55 -165 -133q1 -78 165 -134t392 -56zM307 1307q1 90 99 166q98 77 268 121t370 44t371 -44t269 -121q98 -76 98 -166v-15q-5 -35 -19 -59q-111 -244 -508 -506v-575l-421 -316
v891q-403 264 -508 508q-16 27 -19 57v15z" />
    <glyph glyph-name="uniE043" unicode="&#xe043;" horiz-adv-x="2048" 
d="M1362 1159h-119l-41 -958h119zM1083 1159h-118v-958h118v958zM846 201l-41 958h-119l41 -958h119zM369 1278v121h1310v-121h-118l-109 -1278h-838l-127 1278h-118zM1243 1479h-438v159h438v-159z" />
    <glyph glyph-name="uniE044" unicode="&#xe044;" 
d="M819 662l234 -236l-318 -84zM1092 465l-236 235l694 701l236 -236zM1847 0h-1437v1438h985l-123 -123h-740v-1192h1192v780l123 123v-1026zM1966 1348l-141 -142l-234 236l140 143z" />
    <glyph glyph-name="uniE045" unicode="&#xe045;" horiz-adv-x="1884" 
d="M864 150h156v280q53 50 53 102t-39 90q-38 38 -92 38t-92 -37t-37 -91q0 -54 51 -102v-280zM1516 106q0 -55 -40 -95t-98 -40h-872q-57 0 -97 40t-40 95v521q0 57 53 111t110 53h820q57 1 110 -53t54 -111v-521zM1352 1118v-272h-219v272q1 100 -43 152t-148 52t-148 -52
q-42 -50 -42 -152v-272h-220v272q0 160 122 272t286 112q166 0 289 -113t123 -271z" />
    <glyph glyph-name="uniE046" unicode="&#xe046;" horiz-adv-x="2160" 
d="M1618 201h-1075v-133h1075v133zM1047 436v266h38q21 0 37 -6q22 -14 29 -65l2 -58l-2 -65q-4 -52 -23 -62t-41 -10h-40zM745 602v100h37q30 0 42 -12t11 -39q0 -25 -11 -37t-40 -12h-39zM1382 602v100h134v68h-199v-401h65v168h134v65h-134zM981 770v-401h117q21 0 63 16
q17 7 42 45q26 38 26 108v11q0 111 -10 135q-35 86 -117 86h-121zM678 369h67v168h46q75 0 102 42t13 108q-6 27 -17 42q-41 41 -82 41h-129v-401zM1417 1208h172l-172 172v-172zM1618 1139h-270v268h-805v-469h1075v201zM1683 938q27 0 47 -19t21 -47v-604q1 -28 -19 -48
t-49 -19v-133q0 -28 -18 -48t-47 -20h-1075q-27 0 -45 19t-19 49v133q-29 0 -49 19t-20 48v604q0 26 20 46t49 20v469q1 29 19 48t45 20h872l268 -267v-270z" />
    <glyph glyph-name="uniE047" unicode="&#xe047;" horiz-adv-x="2621" 
d="M1618 532q0 -42 30 -72t72 -30t72 30q31 30 31 72t-31 72q-30 30 -72 31q-42 0 -72 -30q-30 -31 -30 -73zM1208 532q0 -42 30 -72t72 -30t72 30t31 72q-1 42 -31 72t-72 31q-42 0 -72 -30q-30 -31 -30 -73zM900 430q42 0 73 30t31 72t-31 72t-73 31q-42 0 -72 -30
q-30 -31 -30 -73t30 -72t72 -30zM369 546q0 223 185 402q291 281 777 281q173 1 347 -55t300 -150t200 -222t74 -270t-75 -270t-201 -222t-302 -149q-174 -55 -383 -55t-410 78l-383 -197q-11 -4 -23 -4q-11 -1 -25 17t-8 41l158 305q-231 194 -231 470z" />
    <glyph glyph-name="uniE048" unicode="&#xe048;" horiz-adv-x="2426" 
d="M1239 1229q165 1 317 -65t262 -176t175 -262t65 -318t-65 -318t-175 -260q-110 -110 -260 -175q-151 -65 -316 -65q-335 0 -574 230q-37 37 -37 88t35 87t85 37t89 -34q166 -162 402 -162q154 0 286 77t208 209t76 288t-77 288t-209 208t-306 77q-174 0 -329 -119
l-176 174l323 -323q24 -23 18 -45t-40 -31l-582 -127q-35 -6 -53 12t-10 51l127 584q8 33 30 39t45 -18l142 -142q232 191 524 191z" />
    <glyph glyph-name="uniE049" unicode="&#xe049;" horiz-adv-x="2373" 
d="M1575 716q-1 34 -25 58t-58 24t-58 -24l-246 -250l-250 250q-25 23 -58 23t-59 -23q-23 -25 -23 -58t23 -59l250 -247l-250 -248q-23 -26 -23 -60t24 -58t58 -24t58 25l250 250l246 -250q24 -25 58 -25t58 25t25 59q0 34 -25 58l-250 248l250 247q25 25 25 59zM1188 1227
q166 0 318 -65t260 -175q110 -109 174 -261t64 -318t-66 -318t-175 -260q-109 -110 -261 -174t-318 -65t-318 65t-260 176q-110 110 -174 260q-64 152 -63 318q0 222 109 410t297 298q188 109 413 109z" />
    <glyph glyph-name="uniE050" unicode="&#xe050;" horiz-adv-x="2621" 
d="M410 164h1802v-164h-1802v164zM410 492h1802v-164h-1802v164zM410 819h1802v-164h-1802v164zM2212 1147v-164h-1802v164h1802z" />
    <glyph glyph-name="uniE051" unicode="&#xe051;" horiz-adv-x="2621" 
d="M983 164h1229v-164h-1229v164zM410 164h409v-164h-409v164zM983 492h1229v-164h-1229v164zM410 492h409v-164h-409v164zM983 819h1229v-164h-1229v164zM410 819h409v-164h-409v164zM2212 1147v-164h-1229v164h1229zM410 1147h409v-164h-409v164z" />
    <glyph glyph-name="uniE052" unicode="&#xe052;" 
d="M1528 6q18 0 30 -12t12 -30t-12 -31t-30 -13h-686q-18 0 -30 13t-13 31q1 18 13 30t30 12h686zM1534 174q16 0 30 -12t14 -30t-14 -31q-13 -13 -30 -13h-686q-18 0 -32 12t-13 30q0 18 13 32q14 12 32 12h686zM1667 287q0 8 -8 8h-936q-6 0 -6 -8v-457q0 -6 6 -6h936
q8 0 8 6v457zM1724 688q0 18 -12 30t-28 12t-29 -11t-13 -29t12 -30t28 -12t30 11q12 11 12 29zM664 692q0 -18 12 -30t31 -13h831q18 -1 30 13t13 31q-1 17 -13 31t-30 13h-831q-18 0 -31 -13q-12 -14 -12 -32zM707 918h913v268h-913v-268zM1749 918h88q53 0 91 -38t38 -92
v-735q0 -53 -38 -91t-91 -38h-16v-129q-35 -104 -113 -102h-1022l-6 2q-43 9 -73 39t-29 69v121h-39q-53 0 -91 38t-38 91v735q0 54 38 92t91 38h39v301q10 41 39 68t67 28h961q104 -35 104 -111v-286z" />
    <glyph glyph-name="uniE053" unicode="&#xe053;" 
d="M1380 496q0 82 -56 138t-137 56t-138 -56t-57 -138t57 -140t138 -58t137 58t56 140zM1722 690q-20 0 -34 14t-14 36t14 36t34 14t34 -14t14 -36t-14 -36t-34 -14zM1186 201q-120 -1 -206 85t-85 208q0 122 86 210t206 88t206 -88t86 -210t-86 -208q-87 -86 -207 -85z
M1884 780q0 41 -41 81t-82 40h-1149q-41 0 -81 -40t-39 -81v-573q0 -41 40 -83t80 -42h1149q39 0 81 42t42 83v573zM1761 983q81 0 143 -61t62 -142v-573q0 -83 -62 -145t-143 -62h-1149q-80 0 -141 62t-61 145v573q0 82 60 142t142 61h1149zM1513 985h-83v51q0 39 -40 76
t-81 37h-246q-41 0 -82 -41t-41 -82l4 -41h-86v41q0 80 62 142t143 63h246q81 1 143 -61t61 -144v-41z" />
    <glyph glyph-name="uniE054" unicode="&#xe054;" 
d="M1270 70q0 -34 -25 -58t-57 -24t-58 24q-25 24 -24 58v336q0 34 24 58t58 24t58 -24t24 -58v-336zM1188 824q42 0 70 -28t28 -69t-28 -69t-70 -28t-70 28t-28 69t28 69t70 28zM1896 434q0 144 -53 277q-58 131 -151 227q-220 207 -505 207t-503 -207q-92 -95 -152 -227
q-53 -133 -53 -277t53 -276q56 -127 152 -228q226 -204 504 -204t504 204q95 101 151 228q53 132 53 276zM1188 1253q167 -1 319 -65q151 -64 261 -174t174 -261q64 -152 65 -319q1 -224 -109 -412t-298 -298t-412 -109q-167 0 -319 65q-151 64 -261 174t-175 262t-65 318
t65 318t175 262t261 174q152 65 319 65z" />
    <glyph glyph-name="uniE055" unicode="&#xe055;" horiz-adv-x="1966" 
d="M1114 284q0 50 -35 68q-13 10 -35 21l-40 12v-209q50 2 80 30t30 78zM965 684q-51 0 -74 -20q-27 -18 -27 -55t12 -57t45 -32q34 -12 44 -14v178zM850 305q0 -129 115 -129v217q-101 27 -152 69t-51 128t61 129q57 45 142 45v72h39v-72q83 0 139 -43q57 -49 57 -131h-102
q-4 94 -94 94v-188l77 -25q33 -12 70 -37q63 -56 65 -144t-57 -140q-59 -51 -155 -54v-69h-39v69q-97 0 -158 56q-59 59 -59 153h102zM982 963q-144 0 -266 -72q-122 -73 -194 -195t-72 -266t72 -266t194 -194t266 -72t267 72t195 194t72 266q0 219 -157 376t-377 157z
M983 1044q125 0 239 -48t196 -132q82 -82 130 -196t49 -238q-1 -124 -49 -238t-130 -196t-196 -132q-114 -48 -239 -48t-239 48t-196 132q-82 82 -130 196t-49 238q0 254 180 434t434 180z" />
    <glyph glyph-name="uniE056" unicode="&#xe056;" horiz-adv-x="1654" 
d="M950 147v99h148v-99h-148zM754 147v99h147v-99h-147zM557 147v99h148v-99h-148zM950 295v98h148v-98h-148zM754 295v98h147v-98h-147zM557 295v98h148v-98h-148zM950 442v99h148v-99h-148zM754 442v99h147v-99h-147zM557 442v99h148v-99h-148zM508 590v-492h639v492h-639
zM1147 737h98v-737h-835v737h98v-98h197v98h245v-98h197v98zM1098 786v-98h-99v98h99zM655 786v-98h-98v98h98z" />
    <glyph glyph-name="uniE057" unicode="&#xe057;" horiz-adv-x="2015" 
d="M983 117q1 39 15 59t32 20q18 -2 28 -18t12 -36t-3 -38t-26 -29q-21 -10 -54 -3q-9 0 -4 18v27zM1303 158h-80q2 28 21 40t39 0t20 -40zM1460 135q0 57 66 47v66q-49 3 -67 -28q-7 -14 -9 -15l-2 39h-59l2 -219l69 -2v112zM872 244h-69q-5 -22 -1 -90t13 -83t15 -21
t11 -10t7 -6t30 -10t35 -8v-84q58 0 70 2v82q102 6 135 38t22 106q-11 76 -77 86q-43 10 -84 -31q-2 0 -6 -4l-2 31l-60 2l2 -172q-23 2 -31 22t-10 113v37zM1364 111q10 106 -59 133q-40 12 -79 -2t-57 -52q-31 -46 -4 -108q41 -92 189 -51l-8 47q-6 0 -42 -7t-68 13
q-15 10 -13 27h141zM696 23h70v307h-70v-117h-112v117h-70v-307h70v127h112v-127zM874 304q0 14 -11 26t-25 12t-33 -17q-18 -17 7 -45q27 -27 51 0q11 11 11 24zM369 432q-1 67 27 107t119 67q24 9 501 121l178 43q60 16 99 16t83 -24q76 -45 97 -129l126 -539
q45 -190 49 -212t-10 -62t-41 -61q-3 -2 -6 -5h-1067q-31 143 -43 180l-88 359q-24 72 -24 139z" />
    <glyph glyph-name="uniE058" unicode="&#xe058;" horiz-adv-x="2588" 
d="M1563 164q8 53 92 41q-5 -45 -21 -63t-45 -14q-28 3 -26 36zM960 127q-52 5 -16 127q14 21 48 17t38 -31q6 -58 -26 -99q-14 -19 -44 -14zM1126 227q2 17 16 31t38 15q47 2 37 -46h-91zM1903 127q-36 -1 -40 39t15 72q27 53 94 26q-3 -8 -8 -42q-14 -95 -61 -95zM842 293
v-2q-20 -120 -33 -185h39q13 109 33 187h-39zM1647 106h32l21 156q0 35 -64 35l-65 -4q-6 -27 -8 -31q94 22 100 -6q6 -14 -4 -29q-109 11 -127 -45t18 -76q28 -9 57 0t42 29zM1751 106q0 50 19 120q8 22 26 34t43 4l6 27q-42 20 -73 -29q6 12 6 31h-33q-19 -126 -33 -187
h39zM1290 293q0 -9 -30 -187h36q16 117 36 154q12 22 54 4l7 29q-46 18 -74 -31l6 31h-35zM1247 207q14 43 2 68t-61 22q-120 -9 -109 -141q10 -76 146 -45l6 30q-63 -27 -92 -9t-17 75h125zM962 102q34 0 56 13t39 51t12 76t-35 50q-46 19 -90 -16q0 5 4 17h-35
q-13 -110 -47 -270h39q11 88 17 104q6 -25 40 -25zM1456 129q-24 0 -36 9q-11 9 -11 48q10 116 119 76q0 12 4 31q-54 12 -88 0q-33 -13 -47 -32t-22 -58q-17 -82 30 -96t94 6q0 3 6 28q-25 -12 -49 -12zM770 106q27 167 47 263h-45l-18 -107h-119q3 12 10 54t10 53h-43
q-10 -57 -24 -137t-23 -126h43q20 107 23 130q80 5 119 0q-19 -98 -23 -130h43zM1952 135l-2 -29h35q5 58 43 267h-39q-7 -50 -15 -82q-66 20 -109 -19t-40 -108q-1 -54 45 -62q20 -4 30 -1q10 1 13 1q4 0 10 4t8 5t15 14zM854 362q-13 -20 -2 -34q12 -8 29 0q9 6 11 19
t-5 22q-17 9 -33 -7zM1837 -184h-1427l57 289q62 316 65 329q4 14 8 34t5 28q28 100 168 106h1466q-93 -460 -104 -533q-9 -73 -17 -107t-14 -50q-6 -18 -19 -38q-36 -58 -188 -58z" />
    <glyph glyph-name="uniE059" unicode="&#xe059;" horiz-adv-x="1867" 
d="M596 45q51 -33 112 -28t105 49l-51 53q-67 -47 -125 -10zM1180 18q70 0 120 48t54 120l-76 2q-2 -38 -30 -66t-68 -28l-25 2l-31 -69q33 -9 56 -9zM592 190q0 41 30 71t71 30t73 -35l-174 -74v8zM1079 192q0 44 31 74l-39 64q-68 -50 -68 -140t76 -141l39 66
q-39 33 -39 77zM518 200q0 -62 29 -106l313 137q-14 58 -60 95q-44 40 -113 39t-119 -52t-50 -113zM1192 369q-50 0 -78 -15l31 -67q14 6 35 6q68 0 92 -66l78 9q-16 57 -62 95t-96 38zM946 438h-63v-329q2 -41 32 -56l64 -26l25 63l-54 21q-4 1 -4 8v319zM936 778
q152 0 282 -76t206 -206t75 -283q1 -153 -75 -283t-206 -206t-283 -76t-283 76t-207 206q-76 130 -76 283q0 233 166 399t401 166z" />
    <glyph glyph-name="uniE060" unicode="&#xe060;" horiz-adv-x="2420" 
d="M936 983l274 547l275 -547l547 -135l-416 -414l143 -547l-549 275l-548 -275l133 547l-406 414z" />
    <glyph glyph-name="uniE061" unicode="&#xe061;" horiz-adv-x="2023" 
d="M1333 102v82h92q17 0 29 -11t12 -29t-12 -29q-12 -12 -29 -13h-92zM1417 305q17 0 27 -11t10 -27q0 -17 -11 -27t-24 -11l-86 2v74h84zM1614 664v-773q0 -61 -44 -99t-97 -38h-228v301h236q35 1 63 21t28 54q0 36 -27 56q-26 20 -60 21q43 9 59 35t10 53q-16 55 -94 55
h-215v164q1 58 45 104t101 46h223zM827 514q0 59 44 104t102 46h223v-773q0 -61 -44 -99t-97 -38h-228v342q41 -32 127 -47t199 19v61q-146 -69 -211 -6q-33 31 -33 82t35 80q34 29 94 25t115 -36v66q-44 12 -113 18q-142 10 -213 -47v203zM410 514q0 59 44 104t101 46h223
v-773q0 -61 -44 -99t-97 -38h-227v312q46 -12 132 -18q197 -14 206 120v182h-130v-188q-5 -46 -44 -60q-72 -27 -164 27v385z" />
    <glyph glyph-name="uniE062" unicode="&#xe062;" 
d="M1286 24q0 -40 -29 -69t-69 -29t-70 29t-31 70t29 69t72 28t70 -28q28 -30 28 -70zM1165 266q-35 0 -59 24t-23 58v500q1 34 25 58t58 24t58 -24t23 -58v-500q1 -34 -23 -58t-59 -24zM1188 -303q150 1 286 59t236 156q98 98 156 236q58 136 59 286q-1 150 -59 286
t-156 236q-98 98 -236 156q-136 58 -286 59q-150 -1 -286 -59t-236 -156q-98 -98 -156 -236q-58 -136 -59 -286q0 -305 216 -521t521 -216zM1186 1253q166 -1 319 -65q151 -64 261 -174t176 -261q66 -152 65 -319q1 -167 -65 -319q-66 -151 -176 -261t-262 -174t-318 -65
q-166 0 -318 65q-152 64 -260 174q-110 110 -175 262t-65 318t65 318t175 262t260 174q152 65 318 65z" />
    <glyph glyph-name="uniE063" unicode="&#xe063;" horiz-adv-x="2289" 
d="M1419 -33h-35l9 35h34zM1255 8v17h-41l5 -82q0 -7 4 -11t37 -4h24l6 29h-30q-4 4 -5 8v21h23q20 0 29 22l2 19h-31l-4 -15v-2l-2 -2h-17zM1397 20l10 39h35l-6 -26l-19 -4zM1202 57l2 15h70l-4 -15q-2 2 -8 0h-60zM1030 -53q0 -17 25 -21h55l8 33l-24 -4q-14 2 -17 6
l8 39h50l6 29h-47l6 24h47l6 29h-119l-6 -29h27l-6 -24h-27l-6 -29h26zM1497 -74q20 0 35 19l20 32l7 -32q5 -17 22 -17h27l6 31h-6l-11 2q-2 2 -2 6l-8 33h-20l8 12h51l6 25h-47l6 24h47l7 29h-140l-8 -29h51l-6 -24h-51l-6 -25h45l-31 -49l-6 -6l-8 -2h-12l-9 -29h33z
M1243 100l-35 -16l9 33h67l-4 -17h-37zM1411 80l8 39h35l-6 -29q-8 0 -16 -2zM1579 98l-2 29q-3 1 -6 4l-2 16h-47l2 -30q0 -20 28 -19h27zM1409 -74l45 11h12l9 30h-13l35 152h16l7 31q-62 -1 -74 -5l-23 -12l4 17h-45l-43 -185h-8l-6 -28h86zM1182 -39q-4 0 0 10l14 60h86
q4 2 14 6t11 10q4 1 10 25l18 78l-67 -3q-20 -2 -29 -6l-22 -14l6 23h-43l-45 -195l-5 -14q0 -2 9 -11q7 -4 37 -4h32l6 33l-26 -2q-6 0 -6 4zM1051 88q16 0 36 14h66l8 31h-49l6 17h-47l-12 -23q-1 -5 -6 -10h-17l-6 -29h21zM1529 230q-13 0 -13 14t7 38t20 23q15 0 16 -24
l-5 -11q0 -9 -4 -19q-4 -9 -6 -15t-15 -6zM1047 246q0 14 7 38t22 23q19 -3 8 -33q-10 -29 -12 -35t-14 -7q-12 0 -11 14zM987 309v2q-43 -8 -51 -8v-2h-2q-4 -9 -4 -29t-12 -47l-5 -18v-2h25q10 1 27 0v2h2q2 14 2 18l8 31q0 10 6 27l6 26h-2zM1589 205h2l29 129v2
q-48 -8 -53 -8l-2 -2v-4q-31 28 -70 -7q-33 -36 -29 -69q5 -33 25 -39q29 -14 49 6q0 -6 -2 -8l2 -2q26 2 49 2zM1616 98q25 0 35 19l125 219l-2 2q-43 -8 -50 -8l-2 -2q-8 -20 -14 -30t-12 -28q-2 2 -2 4l-2 62l-2 2l-50 -10v-2l9 -68q4 -13 6 -53q-32 -63 -47 -78h-15
l-6 -29h29zM1062 203q52 0 71 67q7 38 -7 52q-10 16 -47 16t-60 -29t-21 -61t24 -39q12 -6 40 -6zM1222 301q8 0 7 -12l-10 -58l-7 -24v-2q27 1 48 0l2 2q3 11 4 23t12 60t-20 48q-23 0 -46 -14l5 14l-3 2q-25 -7 -51 -8l-2 -2q-7 -68 -24 -123v-2q27 1 49 0l2 2q6 33 8 41
l10 49q8 4 16 4zM885 338q-17 0 -33 -6l-12 -8l4 14l-2 2q-25 -7 -51 -8l-3 -2q-8 -68 -24 -123l2 -2q26 2 47 2h2q6 33 8 41l11 49q7 4 16 4t7 -17l-11 -53l-6 -24l2 -2q23 2 47 0l2 2q7 44 15 75t1 42q-5 14 -22 14zM942 315q24 -9 45 7t3 26q-18 11 -44 -4
q-19 -16 -4 -29zM1382 322h-10l2 2l15 67v4l2 2h6l33 -4q17 -5 12 -31q-6 -26 -20 -33t-40 -7zM1503 385q0 45 -80 45h-80l-16 -76l-37 -149h58l8 47l8 31l4 4h4q62 1 92 19t35 59q4 11 4 20zM655 242q-25 0 -28 24v6l4 33q29 109 33 123v2q-61 -1 -64 0v-8l-29 -123l-2 -10
l-4 -33q0 -24 17 -37t53 -15t74 18q29 17 41 67l36 139v2q-49 -1 -53 0l-26 -127q-18 -61 -52 -61zM1229 -246q-33 0 -50 23t-12 57l15 64h-25l-12 -58q-13 -51 22 -86h-350q-33 0 -51 23t-8 57l78 338h-25l-78 -332q-11 -52 23 -86h-281q-33 0 -51 23t-8 57l172 746
q8 36 39 60t65 24h271q-47 -33 -56 -80l-47 -197h25l45 193q8 36 39 60t65 24h340q-45 -32 -57 -80l-45 -197h24l45 193q9 36 39 60t66 24h373q33 0 51 -24t8 -56l-45 -197h2l-129 -547q-10 -34 -41 -60t-63 -26h-373z" />
    <glyph glyph-name="uniE064" unicode="&#xe064;" horiz-adv-x="1994" 
d="M932 989q-176 -1 -302 -125t-126 -300t126 -303q126 -126 302 -126t301 126t125 302t-125 301t-301 125zM934 0q-154 0 -284 76t-206 204q-76 130 -75 282q-1 152 75 282t206 204q130 76 281 76q152 0 282 -76t206 -204q76 -129 76 -280q0 -229 -164 -398l295 -363
l-110 -90l-297 367q-131 -80 -285 -80z" />
    <glyph glyph-name="uniE065" unicode="&#xe065;" horiz-adv-x="1638" 
d="M1147 614q0 16 -12 28t-29 13h-574q-16 0 -28 -12t-12 -29v-368q0 -16 12 -28t28 -13h574q16 1 28 13t13 28v368zM1106 737q51 0 87 -36t36 -87v-368q0 -51 -36 -87t-87 -36h-162q2 -39 20 -61t38 -22q22 0 22 -20t-20 -20h-369q-13 0 -19 10t0 20t24 11t34 23
q18 22 20 59h-162q-51 0 -87 36t-35 87v368q0 51 36 87t86 36h574z" />
    <glyph glyph-name="uniE066" unicode="&#xe066;" horiz-adv-x="1392" 
d="M696 0q16 0 28 12t13 28q0 16 -12 30q-13 12 -29 12t-28 -12q-29 -29 0 -58q12 -12 28 -12zM901 655q0 17 -12 29t-29 12h-328q-16 0 -28 -12t-12 -29v-491q0 -16 12 -28t28 -13h328q16 1 28 13t13 28v491zM860 778q51 0 87 -36t36 -87v-573q0 -51 -36 -87t-87 -36h-328
q-51 0 -87 36t-35 87v573q0 51 36 87t86 36h328z" />
    <glyph glyph-name="uniE067" unicode="&#xe067;" horiz-adv-x="1638" 
d="M840 123q20 -1 20 19t-20 22h-41q-20 0 -20 -20t20 -21h41zM532 205h574v327q0 16 -12 28t-29 13h-492q-16 0 -28 -12t-13 -29v-327zM471 82q-61 0 -61 69q0 35 41 50v331q-1 52 35 88t87 35h492q51 1 87 -35t36 -88v-331q26 -9 36 -29q21 -43 -5 -66q-26 -24 -52 -24
h-696z" />
    <glyph glyph-name="uniE068" unicode="&#xe068;" horiz-adv-x="1474" 
d="M737 0q17 0 29 12t12 28t-12 29t-28 13t-29 -12q-29 -29 0 -58q12 -12 28 -12zM983 655q0 17 -12 29t-29 12h-410q-16 0 -28 -12t-12 -29v-491q0 -16 12 -28t28 -13h410q16 1 28 13t13 28v491zM942 778q51 0 87 -36t36 -87v-573q0 -51 -36 -87t-87 -36h-410q-51 0 -87 36
t-35 87v573q0 51 36 87t86 36h410z" />
    <glyph glyph-name="uniE500" unicode="&#xe500;" horiz-adv-x="2686" 
d="M1147 431q0 -81 57 -139q56 -58 138 -58t140 58t58 139t-58 138t-140 57t-138 -57t-57 -138zM1344 676q102 0 174 -72t72 -174t-72 -174t-174 -72t-174 72t-72 174t72 174t174 72zM1771 811q-196 0 -422 43t-436 43t-405 -35v-846q194 33 404 33t436 -43q228 -43 428 -43
t403 37v846q-212 -35 -408 -35zM2277 -43q0 -39 -41 -47q-244 -45 -454 -45t-434 43q-225 43 -445 43t-436 -41q-25 -4 -41 10t-16 37v946q0 43 39 49q230 43 451 43t448 -43t438 -43t432 43q24 4 42 -12t17 -37v-946zM1343 1094q-25 0 -24 24q0 106 69 197t188 143t259 53
q25 0 25 -24q0 -9 -8 -17t-17 -8q-195 0 -331 -100t-136 -244q0 -8 -8 -16t-17 -8zM1958 1490q0 -30 -23 -54l-174 -174q-14 -14 -35 0q-18 16 0 34l175 174q17 17 0 35l-175 174q-18 16 0 35q18 14 35 0l174 -174q23 -20 23 -50z" />
    <glyph glyph-name="uniE501" unicode="&#xe501;" horiz-adv-x="2686" 
d="M729 -260q0 30 23 51l174 174q6 8 16 8t19 -8q14 -18 0 -35l-175 -174q-18 -17 0 -35l175 -172q9 -13 5 -25t-16 -16q-13 -4 -24 7l-174 172q-23 23 -23 53zM1343 133q25 0 25 -24q0 -106 -70 -197t-188 -144q-119 -53 -258 -53q-25 0 -25 25q1 8 9 16t16 8q128 0 236 46
t169 124q62 80 62 175q-1 9 7 17t17 7zM1342 993q-82 0 -138 -57q-57 -56 -57 -138q-1 -82 57 -140t140 -58t138 57q58 57 58 139t-57 140q-59 57 -141 57zM1343 551q-102 0 -174 73t-71 173q0 101 72 173t174 72t174 -72t72 -173q0 -100 -72 -173t-175 -73zM924 416
q202 0 430 -45q231 -41 422 -41t403 35v845q-409 -69 -844 11q-222 43 -418 43t-409 -35v-848q214 35 416 35zM410 1270q0 41 41 47q227 45 453 45t450 -43q226 -43 430 -43t436 41q23 6 39 -10q18 -12 18 -37v-946q0 -42 -39 -50q-230 -43 -450 -43t-448 43
q-227 43 -440 43t-431 -43q-25 -3 -42 11t-17 39v946z" />
    <glyph glyph-name="uniE502" unicode="&#xe502;" horiz-adv-x="2588" 
d="M1294 418q82 0 140 58t57 139q1 81 -57 139t-140 58t-139 -58q-57 -56 -57 -138t57 -140t139 -58zM1294 860q102 0 174 -72t72 -174t-72 -174t-174 -72t-174 72t-72 174t72 174t174 72zM557 1081q-21 0 -35 -14t-14 -35v-835q0 -21 14 -35t35 -15h1475q20 1 34 15t15 35
v835q-1 20 -15 34t-34 15h-1475zM754 1180h147v49h-147v-49zM950 1180h1082q61 0 104 -43t43 -105v-835q1 -59 -43 -103t-104 -45h-1475q-59 0 -103 44t-44 104v835q0 60 44 104t103 44h148v73q0 25 24 25h197q25 0 24 -25v-73z" />
    <glyph glyph-name="uniE503" unicode="&#xe503;" horiz-adv-x="2785" 
d="M1329 442l107 -80q13 -8 8 -26l-39 -127l108 76q16 10 29 0l109 -76l-37 127q-6 15 8 26l107 80l-134 2q-18 4 -22 17l-45 127l-43 -127q-6 -12 -23 -17zM1358 123q-8 1 -16 9t-5 24l56 178l-150 112q-14 10 -9 26t23 17l187 5l61 176q5 16 23 16t24 -16l60 -176l188 -5
q16 0 23 -16q4 -18 -8 -27l-150 -112l53 -178q6 -16 -9 -28t-28 -1l-153 106l-152 -106q-11 -4 -18 -4zM2288 815q0 17 -14 31t-31 14h-1424q-19 0 -31 -13t-12 -32v-795q0 -18 12 -31t31 -14h1424q17 -1 31 13t14 32v795zM674 815q0 59 43 101t102 42h1192l-47 263
q-8 34 -41 32h-8l-1358 -233q-41 -8 -33 -47l135 -744q0 -13 15 -24v610zM2243 958q59 0 102 -42t43 -101v-795q0 -59 -43 -101t-102 -42h-1424q-59 0 -102 42t-43 101v80q-43 8 -75 38t-40 73l-135 745q-10 56 25 104t92 56l1357 234q10 2 44 2t72 -33t48 -80l52 -281h129z
" />
    <glyph glyph-name="uniE504" unicode="&#xe504;" horiz-adv-x="2588" 
d="M1884 442h-147v-98h147v98zM1712 295q-26 0 -24 20v158q-1 11 5 15t19 4h197q13 0 19 -4t5 -15v-158q0 -20 -24 -20h-197zM1417 492q25 0 25 -25t-25 -25h-737q-25 0 -25 25t25 25h737zM1909 688q25 0 25 -24t-25 -25h-1229q-25 1 -25 25t25 24h1229zM557 1081
q-21 0 -35 -14t-14 -35v-835q0 -21 14 -35t35 -15h1475q20 1 34 15t15 35v835q-1 20 -15 34t-34 15h-1475zM2032 1180q61 0 104 -42t43 -102v-843q0 -59 -43 -101t-104 -43h-1475q-61 0 -104 42t-43 102v843q0 60 43 102t104 42h1475z" />
    <glyph glyph-name="uniE505" unicode="&#xe505;" horiz-adv-x="2752" 
d="M1958 92q54 0 82 49q12 23 12 49t-12 48q-28 49 -83 49t-83 -49q-14 -20 -14 -48t12 -49q32 -49 86 -49zM796 92q54 0 83 49q14 26 14 49t-14 48q-29 49 -83 49t-83 -50q-29 -49 0 -97t83 -48zM1860 770v-414q40 27 102 27t113 -41t67 -104h105v337l-195 195h-192z
M1763 1059h-1257v-821h102q16 64 68 104t121 41q68 -1 118 -41t68 -104h780v821zM2343 242q0 -41 -29 -71t-67 -30h-105q-16 -65 -67 -105t-119 -40t-118 40q-51 40 -69 105h-786q-15 -63 -67 -104t-120 -41t-119 40q-52 40 -69 105h-151q-19 -1 -33 13t-14 34v920
q0 20 13 34t34 13h1353q20 0 34 -13t16 -34v-242h192q40 2 70 -28l192 -193q29 -29 29 -65v-338z" />
    <glyph glyph-name="uniE506" unicode="&#xe506;" horiz-adv-x="2686" 
d="M2179 172v850l-823 -502q-8 -4 -14 -4t-13 4l-821 502v-850h1671zM545 1057l798 -488l797 488h-1595zM2228 1155q20 0 34 -14t15 -35v-983q0 -21 -14 -35t-35 -14h-1769q-21 0 -35 14t-14 35v983q0 20 14 34t35 15h1769z" />
    <glyph glyph-name="uniE507" unicode="&#xe507;" horiz-adv-x="2686" 
d="M2277 123q0 -21 -14 -35t-35 -14h-1769q-21 0 -35 14t-14 35v956l903 -547q11 -14 29 -14t28 8l907 553v-956zM2228 1155q29 0 41 -22l-921 -564l-930 564q13 23 41 22h1769z" />
    <glyph glyph-name="uniE508" unicode="&#xe508;" horiz-adv-x="2686" 
d="M655 394q0 24 25 24h737q25 0 25 -24t-25 -25h-737q-25 1 -25 25zM1555 346q-21 0 -27 18t14 29q29 12 86 74l33 35q13 11 27 4q14 -8 14 -28t-2 -34l39 17q13 9 29 -1t18 -36v-2q0 18 24 10t29 -14q21 -20 166 -8q27 0 27 -23q4 -27 -23 -27q-168 -14 -207 21
q-10 -10 -33 -14q-40 0 -40 36q-84 -43 -84 11q-70 -68 -90 -68zM680 565q-25 0 -25 25t25 24h1327q25 0 25 -24t-25 -25h-1327zM2179 1057h-1671v-885h1671v885zM2277 123q0 -21 -14 -35t-35 -14h-1769q-21 0 -35 14t-14 35v983q0 20 14 34t35 15h1769q20 -1 34 -15t15 -34
v-983z" />
    <glyph glyph-name="uniE509" unicode="&#xe509;" horiz-adv-x="2441" 
d="M1933 221h-245v-196h245v196zM1393 25h245v196h-245v-196zM1098 25h245v196h-245v-196zM803 25h246v196h-246v-196zM508 25h246v196h-246v-196zM1933 467h-245v-197h245v197zM1393 270h245v197h-245v-197zM1098 270h245v197h-245v-197zM803 270h246v197h-246v-197z
M508 270h246v197h-246v-197zM1933 713h-245v-197h245v197zM1638 713h-245v-197h245v197zM1343 713h-245v-197h245v197zM1049 713h-246v-197h246v197zM508 516h246v197h-246v-197zM508 762h1425v295h-295q0 -21 -14 -35t-34 -14t-36 14q-14 14 -14 35h-270q0 -21 -14 -35
t-34 -14t-36 14q-14 14 -15 35h-270q-1 -21 -15 -35t-34 -14t-34 14t-15 35h-295v-295zM1982 1155q20 0 34 -14t16 -35v-1131q0 -20 -14 -34t-36 -15h-1523q-21 0 -35 14t-14 35v1131q0 20 14 34t35 15h344q1 21 15 35t34 14t34 -14t15 -35h270q1 21 15 35t34 14t34 -14
t16 -35h270q0 21 14 35t34 14t36 -14q14 -16 14 -35h344z" />
    <glyph glyph-name="uniE510" unicode="&#xe510;" horiz-adv-x="2437" 
d="M1419 465l-133 4q-18 0 -22 16l-45 125l-43 -125q-4 -16 -23 -16l-133 -4l106 -80q14 -11 9 -27l-39 -127l110 76q14 11 27 0l108 -76l-36 127q-6 16 8 27zM1220 710q16 0 23 -16l62 -176l186 -4q15 0 22 -18q4 -17 -10 -27l-147 -113l53 -178q6 -16 -8 -26t-29 0
l-153 106l-152 -106q-13 -12 -28 -1t-9 27l53 178l-149 113q-12 11 -8 27q8 18 22 18l187 4l61 176q8 16 24 16zM1931 25v786h-1425v-786h1425zM506 1057v-197h1425v197h-295q0 -21 -14 -35t-34 -14t-36 14q-14 14 -14 35h-270q0 -21 -14 -35t-34 -14t-36 14q-14 14 -15 35
h-268q-1 -21 -15 -35t-34 -14t-34 14t-15 35h-297zM1980 1155q20 0 34 -14t14 -35v-1131q0 -20 -14 -34t-34 -15h-1521q-21 0 -35 14t-14 35v1131q0 20 14 34t35 15h344q1 17 15 33t34 16t34 -15t15 -34h268q1 17 15 33t34 16t34 -15t16 -34h270q0 17 14 33t34 16t36 -15
q14 -17 14 -34h344z" />
    <glyph glyph-name="uniE511" unicode="&#xe511;" horiz-adv-x="2539" 
d="M1982 762h-663v-737h663v737zM1221 25v737h-664v-737h664zM2032 958h-713v-98h713v98zM508 860h713v98h-713v-98zM1507 1254q-43 0 -77 -30t-62 -118q218 9 221 86q1 16 -12 35q-27 27 -70 27zM1034 1254q-44 0 -71 -27q-35 -43 16 -79t192 -42q-28 88 -61 118
q-32 30 -76 30zM2130 1008v-197q0 -21 -14 -35t-35 -14v-787q-1 -20 -15 -34t-34 -15h-1524q-20 0 -34 14t-15 35v787q-21 0 -35 14t-14 35v197q0 20 14 34t35 15h481q-48 27 -70 70q-47 91 24 169q32 34 81 48q101 28 178 -29q74 -51 117 -193q40 132 100 181t142 49
q84 0 134 -56t40 -126q-10 -72 -87 -113h482q21 -1 35 -15t14 -34z" />
    <glyph glyph-name="uniE512" unicode="&#xe512;" horiz-adv-x="2490" 
d="M1491 614q31 0 53 -22t22 -52t-24 -52q-22 -22 -52 -22t-52 22t-21 53q-1 31 21 52t53 21zM1982 614q0 20 -14 34t-35 16h-442q-51 0 -87 -36t-36 -87t36 -87t87 -36h442q21 0 35 14t14 35v147zM1933 319h-442q-92 0 -157 65q-64 66 -64 158t64 156t157 64h442v246
q0 20 -14 34t-35 15h-1376v-983q0 -20 14 -34t35 -15h1327q20 0 34 14t15 35v245zM557 1253q-21 -1 -35 -15t-14 -34t14 -34t35 -15h1229v49q0 20 -14 34t-35 15h-1180zM2081 614v-147q0 -66 -49 -111v-282q0 -60 -43 -104t-105 -44h-1327q-61 0 -104 43t-43 105v1130
q0 60 44 104t103 44h1180q61 0 104 -43t43 -105v-49q60 1 104 -43t44 -104v-283q49 -45 49 -111z" />
    <glyph glyph-name="uniE513" unicode="&#xe513;" horiz-adv-x="2043" 
d="M508 -45q0 -6 1 -10t1 -8l18 8l1088 657q11 7 20 16q-6 10 -20 19l-1088 657l-18 9l-2 -21v-1327zM499 1403q39 0 79 -25l1089 -657q70 -41 70 -101t-70 -102l-1089 -657q-40 -25 -80 -25t-64 32t-24 87v1327q0 56 25 88t64 33z" />
    <glyph glyph-name="uniE514" unicode="&#xe514;" horiz-adv-x="2236" 
d="M1741 766q0 -25 -25 -25t-24 25q0 66 -39 123t-101 82q-25 7 -14 30q8 23 31 15q77 -27 125 -97t47 -153zM1118 922q-29 0 -43 26q-47 86 -131 136t-184 51q-142 0 -248 -109t-106 -258q0 -248 503 -691q117 -101 209 -171q230 174 438 390q124 128 200 254t75 218
q1 150 -105 258t-249 109q-97 -1 -183 -51t-133 -136q-14 -26 -43 -26zM1477 1233q186 -1 319 -137t133 -328q0 -102 -76 -240t-190 -262t-310 -298q-196 -172 -235 -173q-38 -1 -232 171t-310 298t-193 264q-76 138 -76 252t61 222t165 169q104 62 227 62q219 0 358 -172
q139 172 359 172z" />
    <glyph glyph-name="uniE515" unicode="&#xe515;" horiz-adv-x="2187" 
d="M625 907q-3 -303 121 -529t348 -327q223 99 347 325t124 531q-231 33 -471 174q-235 -139 -469 -174zM1095 0q-19 0 -95 46t-154 123t-137 174q-58 97 -98 255t-36 332q0 20 21 24q245 32 485 176q14 11 25 0q239 -144 485 -176q23 -5 23 -24q2 -175 -37 -333
q-39 -159 -97 -255q-110 -182 -292 -298q-73 -44 -93 -44zM1706 1094q-278 0 -612 227q-335 -227 -613 -227q-34 0 -63 4q-28 -247 18 -473q46 -225 130 -357t201 -240t195 -150t132 -64q99 34 223 124q125 90 187 169t123 171t107 260t47 293t-9 267q-33 -4 -66 -4z
M481 1194q261 0 584 227q31 19 57 0q325 -227 584 -227q67 0 96 10q50 8 60 -43q31 -321 -11 -537q-83 -428 -361 -676q-186 -164 -380 -235q-8 -3 -16 -3t-62 20t-145 76q-331 202 -479 562q-116 281 -98 607q4 79 16 186q2 21 20 33t46 6t89 -6z" />
    <glyph glyph-name="uniE516" unicode="&#xe516;" horiz-adv-x="2293" 
d="M705 -25q80 -1 138 43t58 104t-58 104q-59 44 -139 44t-138 -44t-58 -102q0 -60 58 -105q59 -44 139 -44zM1393 270q1 -60 59 -104t138 -43q80 -1 137 43q58 44 59 104q0 60 -58 104t-138 44t-139 -44q-58 -44 -58 -104zM1786 1024v172l-787 -131v-172zM1884 270
q0 -102 -86 -174t-209 -72t-209 72t-86 174t86 174t204 72t202 -63v522l-787 -131v-721q-1 -102 -87 -174t-208 -72t-208 72t-86 174t86 174t204 72t201 -64v801q0 43 41 49l885 148q25 3 41 -11t16 -39v-983z" />
    <glyph glyph-name="uniE517" unicode="&#xe517;" horiz-adv-x="2097" 
d="M1466 172q25 0 25 -25t-25 -24h-245q-25 1 -25 25t25 24h245zM1442 344v98h-221v-98h221zM655 344h516v98h-516v-98zM1442 590h-221v-98h221v98zM655 590v-98h516v98h-516zM1442 737h-221v-98h221v98zM655 639h516v98h-516v-98zM1466 786q25 0 25 -24v-443q0 -25 -25 -24
h-835q-25 0 -25 24v443q0 24 25 24h835zM631 1008q-25 0 -25 24t25 25h246q25 0 24 -25q1 -24 -24 -24h-246zM1319 958h250l-250 252v-252zM508 0h1081v909h-295q-25 0 -24 25v295h-762v-1229zM1688 -49q0 -21 -14 -35t-36 -14h-1179q-21 0 -35 14t-14 35v1327q0 20 14 34
t35 15h862q16 0 35 -14l317 -322q13 -12 15 -33v-1007z" />
    <glyph glyph-name="uniE518" unicode="&#xe518;" horiz-adv-x="2097" 
d="M1589 999h-1081v-1081h1081v1081zM877 1098h344v245q1 83 -47 147t-125 87q-77 -23 -125 -87t-47 -147v-245zM1270 1098h98v245q0 96 -66 167t-163 79q131 -89 131 -246v-245zM729 1098h98v245q0 157 131 246q-96 -8 -162 -79t-67 -167v-245zM1417 1098h221q20 0 34 -14
t16 -35v-1180q0 -21 -14 -35t-36 -14h-1179q-21 0 -35 14t-14 35v1180q0 20 14 34t35 15h221v245q0 123 86 209t209 86q35 0 74 -10q39 10 73 10q123 0 209 -86t86 -209v-245z" />
    <glyph glyph-name="uniE519" unicode="&#xe519;" horiz-adv-x="1900" 
d="M1024 -50q0 -30 -22 -52t-52 -22t-52 24q-22 22 -22 52t22 52t52 22t52 -24q22 -22 22 -52zM1051 1352q23 0 23 -26t-23 -23h-199q-25 1 -25 25t25 24h199zM1343 1450h-786q-21 0 -35 -14t-14 -35v-1573q0 -20 14 -34t35 -15h786q21 1 35 15t15 34v1573q-1 21 -15 35
t-35 14zM1491 -172q0 -61 -43 -104t-105 -43h-786q-61 0 -104 43t-43 104v1573q0 61 43 104t104 43h786q61 0 105 -44t43 -103v-1573z" />
    <glyph glyph-name="uniE520" unicode="&#xe520;" horiz-adv-x="1900" 
d="M1024 -48q0 30 -22 52t-52 22t-52 -24q-22 -22 -22 -52t22 -52t52 -22t52 24q22 22 22 52zM1074 1328q0 24 -23 24h-199q-25 0 -25 -24t25 -25h199q23 1 23 25zM1343 1548q61 0 105 -44t43 -103v-1573q0 -60 -43 -104t-105 -43h-786q-59 -1 -103 43t-44 104v1573
q0 61 43 104t104 43h786z" />
    <glyph glyph-name="uniE521" unicode="&#xe521;" horiz-adv-x="2232" 
d="M657 1262q-15 -8 -21 -28t4 -38t30 -23q21 -5 38 4t22 29t-5 37q-25 43 -68 19zM633 1305q37 20 75 9t59 -45t10 -74q-11 -41 -46 -61t-74 -10t-59 45t-10 75t45 61zM1044 -274l766 442l-604 1046q-45 80 -141 107l-315 88q-88 25 -166 -19t-97 -133l-77 -315
q-19 -82 30 -170zM1094 1415q132 -40 196 -151l629 -1090q18 -38 -25 -72l-852 -491q-34 -18 -59 22l-629 1090q-70 121 -39 244l74 313q33 131 148 195q110 68 241 30z" />
    <glyph glyph-name="uniE522" unicode="&#xe522;" horiz-adv-x="2631" 
d="M1423 -178q62 36 62 121q-5 45 -49 84q-35 26 -74 24h-14q-83 -6 -108 -103q-10 -44 24 -93t98 -50q32 0 61 17zM2073 565l-209 363l-639 -369l209 -362zM1499 1090q-24 0 -24 27q0 7 12 20l86 49q22 10 33 -10q4 -4 4 -16t-13 -17l-86 -49q-4 -4 -12 -4zM991 963
l209 -361l639 369l-209 360zM1364 -293q-60 0 -112 30t-81 81q-47 81 -22 168q14 59 63 104l-616 1063h-240q-20 1 -34 15t-14 34t14 34t34 15h269q31 0 43 -22l628 -1090q15 7 52 11l-465 806q-9 18 -4 38t20 30l725 418q43 22 68 -19l491 -852q21 -38 -18 -65l-680 -393
q25 -18 39 -35l665 385q40 22 68 -19q23 -41 -19 -67l-665 -383q20 -64 2 -123q-22 -88 -102 -133q-49 -31 -109 -31z" />
    <glyph glyph-name="uniE523" unicode="&#xe523;" horiz-adv-x="1763" 
d="M799 -162q0 26 18 44t44 18q27 0 45 -18t18 -44t-18 -45q-18 -18 -44 -18t-45 18q-18 19 -18 45zM915 66q0 -24 -16 -40t-39 -16t-39 16t-16 40v112q0 155 121 277q31 31 98 86q100 81 138 120q93 95 79 236q-7 73 -48 137t-105 103q-147 92 -317 43q-179 -50 -255 -252
q-8 -20 -28 -30t-41 -2t-31 28t-2 43q44 123 128 205t193 112q159 41 291 3t222 -141t104 -237q22 -232 -194 -403q-148 -117 -157 -129t-25 -30q-16 -19 -22 -29q-5 -10 -15 -28q-24 -44 -24 -112v-112z" />
    <glyph glyph-name="uniE524" unicode="&#xe524;" horiz-adv-x="2486" 
d="M1704 238q0 -62 44 -108t106 -46q64 0 108 45t45 107q0 62 -44 107q-43 44 -107 44t-108 -44t-44 -105zM1020 442q24 0 24 -24t-24 -25h-98q-25 1 -25 25t25 24h98zM725 442q25 0 25 -24t-25 -25h-98q-25 1 -25 25t25 24h98zM430 442q25 0 25 -24t-25 -25h-98
q-25 1 -25 25t25 24h98zM1540 518q18 0 32 13t13 33q1 20 -13 33t-32 13t-32 -13t-14 -33t14 -33t32 -13zM1855 1044q-63 0 -107 -44t-44 -108q0 -62 44 -106t107 -44t107 44t45 106q0 62 -44 107q-45 45 -108 45zM2077 240q0 -94 -66 -160t-157 -66q-90 0 -156 65t-66 157
q0 47 21 94q-6 43 -39 72t-70 36l-31 6l-92 -53h-256v2l250 170l-567 389q46 -8 108 -22t238 -86q174 -72 319 -160q11 0 39 9q86 26 101 106q-19 46 -21 94q0 89 66 155t156 66t156 -66t67 -156q0 -90 -66 -157q-66 -66 -156 -65q-30 0 -63 10q-98 -38 -111 -109v-14
q7 -33 27 -54t68 -48q9 -2 16 -6q59 19 121 0q62 -18 90 -48q74 -68 74 -161z" />
    <glyph glyph-name="uniE525" unicode="&#xe525;" horiz-adv-x="2252" 
d="M508 25h1278v147h-92q-48 0 -52 39q-14 185 -118 349t-270 268t-355 118q-19 2 -33 16t-14 33v258h-344v-1228zM1841 270q19 0 31 -18t12 -43v-246q0 -37 -43 -37h-1376q-55 0 -55 37v1327q0 20 17 40t38 22h442q19 0 31 -20t12 -42v-250q117 -13 238 -67l33 69l-35 15
q-20 11 -10 35t30 12l58 -23l55 -26q26 -12 12 -35q-7 -14 -17 -14t-16 2l-32 14l-31 -70q109 -56 192 -129l56 62l-27 24q-10 13 -7 25t17 16t25 -6l90 -82q12 -18 1 -35t-36 -2l-26 25l-56 -59q88 -85 146 -179l67 41l-18 31q-7 14 1 26t20 12t22 -13l61 -105q9 -18 0 -27
t-23 -9t-20 12l-18 32l-68 -34q82 -145 105 -308h102z" />
    <glyph glyph-name="uniE526" unicode="&#xe526;" horiz-adv-x="2392" 
d="M1343 444q21 0 35 -14t15 -35v-370h491v903l-696 332l-680 -332v-903h491v370q1 21 15 35t35 14h294zM1343 -74q-20 0 -34 14t-15 35v371h-196v-371q0 -20 -14 -34t-35 -15h-590q-15 0 -35 15q-14 19 -14 34v983q0 33 28 46l727 354q23 11 43 0l746 -354q29 -12 28 -46
v-983q0 -20 -14 -34t-35 -15h-590z" />
    <glyph glyph-name="uniE527" unicode="&#xe527;" horiz-adv-x="2588" 
d="M2081 516h-959v-418h910q20 0 34 12t15 31v375zM1024 98v418h-516v-375q0 -18 14 -30t35 -13h467zM1278 786q-30 0 -49 -16q-27 -16 -53 -82q95 6 126 26q50 34 19 60q-13 12 -43 12zM864 786q-28 0 -41 -14t-11 -28q2 -12 32 -31q31 -19 125 -25q-25 63 -54 84
q-23 14 -51 14zM1122 1032v-235q49 88 163 88q65 -1 109 -47t36 -104q-12 -84 -113 -120h764v373q-1 17 -15 31t-34 14h-910zM1024 1032h-467q-21 0 -35 -13t-14 -32v-373h319q-61 19 -89 61t-23 86q6 45 43 85t110 39q101 0 156 -88v235zM2032 1130q59 0 103 -43t44 -100
v-846q0 -57 -44 -99t-103 -42h-1475q-61 0 -104 41t-43 100v846q0 59 43 101t104 42h1475z" />
    <glyph glyph-name="uniE528" unicode="&#xe528;" horiz-adv-x="2506" 
d="M1648 750q36 0 60 -25q26 -25 26 -61t-28 -60q-26 -26 -60 -26t-60 26t-26 62t26 60t62 24zM1166 666q0 36 26 60t62 24t60 -25q26 -25 26 -61t-26 -61t-60 -25q-36 0 -62 26t-26 62zM860 750q34 0 60 -25t26 -61t-26 -60q-26 -26 -60 -26t-60 26t-26 62t26 60t60 24z
M1261 25q147 -1 293 51t252 138t170 204t64 234q0 222 -146 379q-242 259 -620 273q-326 12 -572 -190q-112 -92 -172 -210t-62 -232q-2 -115 44 -224t135 -190q27 -22 12 -57l-114 -256l291 172q22 10 43 2q234 -94 382 -94zM1247 -74q-149 0 -383 92l-307 -180
q-14 -10 -44 -10q-29 0 -55 26t-26 50q0 26 6 43v2q2 2 2 4l115 256q-93 95 -141 218t-44 253q2 130 69 263t194 239q263 219 620 219q195 0 373 -71t305 -200q207 -207 207 -457t-175 -443t-433 -266q-134 -38 -283 -38z" />
    <glyph glyph-name="uniE529" unicode="&#xe529;" horiz-adv-x="2883" 
d="M1343 367q81 0 139 57t58 139q0 81 -57 139t-139 58t-140 -58t-57 -140q0 -82 57 -138q57 -57 139 -57zM1344 809q102 0 174 -73t72 -173t-72 -173t-174 -73t-174 73t-72 173t72 173t174 73zM2130 612q-140 0 -240 96t-104 236q-225 0 -451 45q-235 41 -416 41t-411 -35
v-845q393 73 844 -11q221 -43 409 -43t418 35v485q-29 -4 -49 -4zM2154 981h99q16 -1 22 -13q5 -12 -1 -24t-21 -12h-99v-98q0 -25 -24 -25t-25 25v98h-98q-25 0 -25 24t25 25h98v98q0 25 25 25t24 -25v-98zM2376 956q0 100 -72 173t-174 73t-174 -73t-72 -173t72 -172
t174 -72t174 72t72 172zM2474 956q0 -98 -54 -182t-143 -127v-557q0 -41 -41 -47q-226 -45 -450 -45t-451 45q-232 41 -434 41t-434 -41q-23 -6 -39 10q-18 12 -18 37v946q0 43 41 49q230 43 450 43t447 -43t438 -43h12q30 114 122 186t224 72q130 0 230 -101t100 -243z" />
    <glyph glyph-name="uniE530" unicode="&#xe530;" horiz-adv-x="2686" 
d="M680 160q-25 0 -25 24t25 25h737q25 -1 25 -25t-25 -24h-737zM1554 137q-20 1 -26 19t20 30t80 72l33 35q13 11 27 4t14 -28t-2 -33l16 6l23 10q13 8 29 -2t18 -35v-2q0 18 24 10t29 -14q21 -20 166 -8q27 0 27 -23q4 -28 -23 -26q-169 -14 -207 20q-10 -10 -33 -14
q-40 0 -40 37q-84 -43 -84 10q-71 -68 -91 -68zM680 356q-25 0 -25 25t25 25h1327q25 0 25 -25t-25 -25h-1327zM508 -37h1671v885h-1671v-885zM2277 -86q0 -20 -14 -34t-35 -15h-1769q-21 0 -35 14t-14 35v983q0 21 14 35t35 14h1769q20 0 34 -14t15 -35v-983zM1294 1094
q-26 0 -24 24q0 106 69 197t188 143t259 53q26 0 24 -24q0 -9 -8 -17t-16 -8q-195 0 -331 -100t-136 -244q-1 -8 -9 -16t-16 -8zM1908 1488q0 -29 -20 -52l-176 -174q-14 -14 -35 0q-18 16 0 34l174 174q20 17 0 35l-174 174q-17 16 0 35q18 14 35 0l176 -174q20 -23 20 -52
z" />
    <glyph glyph-name="uniE531" unicode="&#xe531;" horiz-adv-x="2293" 
d="M1565 66h221v368q0 96 -62 158t-159 63q-29 0 -56 -6q54 -96 56 -213v-370zM508 66h221v370q0 117 57 213q-28 6 -57 6q-97 0 -159 -62t-62 -159v-368zM827 -82h639v518q0 146 -94 232t-220 86q-128 0 -214 -74q-35 -23 -73 -87t-38 -157v-518zM1565 1171q1 -99 -45 -189
t-125 -146q66 -82 164 -82q99 0 163 64t64 156q0 94 -64 158t-157 64v-25zM729 1196q-91 0 -156 -64t-65 -158q0 -92 66 -156t164 -64q97 0 163 82q-172 124 -172 335v25zM827 1171q0 -147 117 -247q162 -111 318 -50q57 20 88 50q117 96 116 247v3q0 59 -16 98
q-32 96 -116 158t-187 62t-187 -62q-84 -61 -116 -158q-16 -53 -17 -98v-3zM1884 16q0 -20 -14 -34t-35 -15h-270v-98q-1 -21 -15 -35t-34 -14h-738q-20 0 -34 14t-15 35v98h-270q-21 1 -35 15t-14 34v418q0 182 147 273q-147 96 -147 268q0 131 94 225t225 94h19
q42 130 152 212t248 83q138 -1 248 -83q112 -82 150 -212h19q131 0 225 -94t94 -225q0 -172 -147 -268q147 -90 147 -273v-418z" />
    <glyph glyph-name="uniE532" unicode="&#xe532;" horiz-adv-x="2021" 
d="M926 -123q12 0 12 12l55 344q8 43 39 69t72 26h41q391 0 461 360q29 137 -15 223q-8 -38 -16 -55q-86 -267 -348 -340q-93 -29 -223 -29h-148q-49 0 -57 -53q0 -12 -41 -273t-47 -284h215zM1004 586q121 0 218 38t155 100q123 128 136 286t-61 235q-94 105 -346 107h-469
q-19 0 -23 -19l-208 -1323h227q11 58 27 172t29 188q13 76 13 79q10 63 52 100t102 37h148zM698 -221q-37 0 -67 31q-25 31 -19 67l4 35h-217q-42 0 -70 33t-22 73l209 1330q8 46 42 74t79 28h469q292 0 420 -137q98 -112 86 -275q139 -115 90 -368q-84 -439 -557 -441h-41
q-12 0 -12 -12l-56 -344q-6 -41 -38 -68t-72 -26h-228z" />
    <glyph glyph-name="uniE533" unicode="&#xe533;" horiz-adv-x="2033" 
d="M874 457q0 94 109 125v61h55v-61q36 -6 60 -25t47 -57l-62 -35q-33 51 -66 51t-53 -16t-20 -40q0 -22 12 -36t62 -39q63 -22 102 -61q35 -42 35 -96t-31 -93t-86 -55v-66h-55v64q-61 8 -94 41t-49 102l69 15q15 -52 35 -70t56 -18q37 0 59 22q25 19 25 46t-8 43t-42 40
l-49 25q-63 30 -87 58t-24 75zM1145 717q-9 0 -17 8q-94 121 -124 209q-39 -6 -86 -2q0 -76 16 -156q5 -23 -19 -26h-4q-23 0 -24 18q-18 98 -15 172q-35 8 -67 29l-19 10q-136 -51 -201 -200t-108 -417l-6 -40q-21 -162 15 -252q70 -178 265 -255q119 -49 273 -47t280 58
q195 89 256 286q40 136 -44 320q-35 74 -66 169l-38 111q-37 111 -80 155q-83 84 -173 108q-59 -23 -108 -33q25 -69 114 -188q13 -18 1 -28t-21 -9zM1044 1382q-25 0 -61 17q-5 -12 -6 -39q-12 -74 -62 -74q-31 0 -75 46t-49 50q-16 -56 49 -215q30 -5 109 -25t138 -9
q9 0 19 2q10 17 16 34q126 299 21 304q-20 1 -47 -45t-52 -46zM784 1458q48 0 119 -84q18 104 63 104q20 0 60 -18h4l6 10q40 76 104 76t97 -47q63 -98 -45 -358q-2 -2 -2 -4q58 -1 81 -28t1 -63q-6 -10 -6 -12q72 -34 127 -98t81 -124t64 -174t61 -167q69 -155 65 -281
t-83 -250t-231 -196t-324 -72t-312 57t-229 158q-152 185 -106 449l6 43q46 299 123 451t207 219q-31 89 47 116q-101 251 2 289q15 4 20 4z" />
    <glyph glyph-name="uniE534" unicode="&#xe534;" horiz-adv-x="1998" 
d="M1061 39q16 -1 22 -13q5 -12 -1 -24t-21 -12h-148q-25 0 -24 24q-1 25 24 25h148zM1282 162q0 25 -25 24h-49q-26 0 -24 -24v-99q0 -25 24 -24h49q25 -1 25 24v99zM1012 137q16 1 22 13t0 24t-22 12h-49q-25 0 -25 -24t25 -25h49zM791 162q0 25 -25 24h-49q-25 0 -25 -24
v-99q0 -25 25 -24h49q25 -1 25 24v99zM1257 236q31 0 53 -22t21 -52v-99q-1 -31 -23 -53t-51 -20h-49q-30 0 -52 22t-21 51v99q-1 30 21 52t52 22h49zM1012 236q30 0 52 -22t22 -52t-23 -52t-51 -22h-49q-31 0 -53 22t-22 52t22 52t53 22h49zM766 236q30 0 52 -22t22 -52
v-99q0 -31 -23 -53t-51 -20h-49q-31 0 -53 22t-21 51v99q-1 30 21 52t53 22h49zM1257 334q25 0 25 24t-25 25h-49q-25 0 -24 -25q-2 -24 24 -24h49zM1012 334q24 0 24 24t-24 25h-49q-25 -1 -25 -25t25 -24h49zM766 334q25 0 25 24t-25 25h-49q-25 -1 -25 -25t25 -24h49z
M1257 432q31 0 53 -22t22 -52t-23 -52t-52 -21h-49q-30 -1 -52 21t-22 52t22 52t52 22h49zM1012 432q30 0 52 -22t22 -52t-23 -52t-51 -21h-49q-31 -1 -53 21t-22 52t22 52t53 22h49zM766 432q30 0 52 -22t22 -52t-23 -52t-51 -21h-49q-31 -1 -53 21t-21 52q-1 30 21 52
t53 22h49zM1257 530q25 0 25 25t-25 25h-49q-25 0 -25 -25t25 -25h49zM1012 530q16 0 22 12t0 26q-6 12 -22 12h-49q-25 0 -25 -25t25 -25h49zM766 530q25 0 25 25t-25 25h-49q-25 0 -25 -25t25 -25h49zM1257 629q29 -1 52 -23t23 -52t-23 -52t-52 -21h-49q-30 1 -52 23
t-22 52t22 52t52 21h49zM1012 629q30 -1 52 -23t22 -52t-23 -52t-51 -21h-49q-31 1 -53 23t-22 52t22 52t53 21h49zM766 629q30 -1 52 -23t22 -52t-23 -52t-51 -21h-49q-31 1 -53 23t-21 52q-1 30 21 52t53 21h49zM1233 1071h-492v-246h492v246zM713 776q-20 0 -21 25v295
q0 26 21 24h547q24 0 22 -24v-295q1 -25 -22 -25h-547zM1491 1317q0 21 -14 35t-35 14h-49v-74q0 -24 -25 -24t-25 24v74h-196v-74q-1 -16 -13 -22t-24 0t-12 22v74h-197v-74q-1 -16 -13 -22t-24 0t-12 22v74h-197v-74q-1 -16 -13 -22t-24 0t-12 22v74h-49q-21 0 -35 -14
t-14 -35v-1426q0 -20 14 -34t35 -15h885q20 0 34 14t15 35v1426zM1446 1464q59 0 101 -43t42 -104v-1426q0 -61 -42 -104t-101 -43h-893q-59 0 -101 43t-42 104v1426q0 61 42 104t101 43h893z" />
    <glyph glyph-name="uniE535" unicode="&#xe535;" horiz-adv-x="2732" 
d="M1997 -4h-2l-4 2l-99 86q-8 8 -8 18t12 24t29 -3l57 -51v217q0 25 25 25t25 -25v-217l57 51q17 17 29 3t12 -24t-8 -18l-99 -86q-6 0 -6 -4l-10 -2l-10 2v2zM2016 -106q100 0 174 77q75 77 75 187t-82 181q-81 70 -175 72q-94 1 -166 -59t-89 -149q-4 -29 -4 -51
q0 -123 94 -199q73 -59 173 -59zM1540 473q0 25 25 25t24 -25v-98q-1 -25 -25 -25t-24 25v98zM1466 498q25 0 25 -25v-98q0 -25 -25 -25t-24 25v98q-1 25 24 25zM1294 473q0 25 25 25t24 -25v-98q-1 -25 -25 -25t-24 25v98zM1196 473q0 25 25 25t24 -25v-98q-1 -25 -25 -25
t-24 25v98zM1122 498q25 0 25 -25v-98q0 -25 -25 -25t-24 25v98q-1 25 24 25zM999 473q0 25 25 25t25 -25v-98q0 -25 -25 -25t-25 25v98zM852 473q0 25 25 25t24 -25v-98q-1 -25 -25 -25t-24 25v98zM778 498q25 0 25 -25v-98q0 -25 -25 -25t-24 25v98q-1 25 24 25zM655 473
q0 25 25 25t25 -25v-98q0 -25 -25 -25t-25 25v98zM1663 694q25 0 25 -24t-25 -25h-983q-25 1 -25 25t25 24h983zM655 818q0 24 25 24h786q25 0 25 -24t-25 -25h-786q-25 1 -25 25zM1786 842h274l-274 274v-274zM1737 1137h-1229v-934h1147q19 131 119 219t233 88q21 0 74 -8
v291h-320q-25 0 -24 24v320zM2363 154q0 -146 -104 -252t-244 -106q-141 0 -241 88t-119 220h-1196q-21 0 -35 14t-14 36v1032q0 20 14 34t35 15h1327q19 0 35 -16l344 -345q14 -14 14 -32v-377q85 -48 135 -131t49 -180z" />
    <glyph glyph-name="uniE536" unicode="&#xe536;" horiz-adv-x="2732" 
d="M2032 176h86q24 0 24 -24t-24 -25h-86v-86q0 -25 -25 -25t-25 25v86h-86q-16 1 -22 13t0 24t22 12h86v86q0 25 25 25t25 -25v-86zM2016 -106q100 0 174 77q75 77 75 185q1 108 -77 180t-175 72q-97 2 -169 -58t-91 -149q-4 -29 -4 -49t4 -50q19 -92 91 -150t172 -58z
M1540 471q0 25 25 25t24 -25v-98q-1 -25 -25 -25t-24 25v98zM1466 496q25 0 25 -25v-98q0 -25 -25 -25t-24 25v98q-1 25 24 25zM1294 471q0 25 25 25t24 -25v-98q-1 -25 -25 -25t-24 25v98zM1196 471q0 25 25 25t24 -25v-98q-1 -25 -25 -25t-24 25v98zM1122 496q25 0 25 -25
v-98q0 -25 -25 -25t-24 25v98q-1 25 24 25zM999 471q0 25 25 25t25 -25v-98q0 -25 -25 -25t-25 25v98zM852 471q0 25 25 25t24 -25v-98q-1 -25 -25 -25t-24 25v98zM778 496q25 0 25 -25v-98q0 -25 -25 -25t-24 25v98q-1 25 24 25zM655 471q0 25 25 25t25 -25v-98
q0 -25 -25 -25t-25 25v98zM1663 692q25 0 25 -24t-25 -25h-983q-25 1 -25 25t25 24h983zM655 816q0 24 25 24h786q25 0 25 -24t-25 -25h-786q-25 1 -25 25zM1786 840h274l-274 274v-274zM1737 1135h-1229v-934h1147q17 131 117 219t235 88q39 0 74 -8v291h-320q-25 0 -24 24
v320zM2363 152q1 -148 -103 -252t-245 -104t-241 86t-119 220h-1196q-21 0 -35 14t-14 36v1032q0 20 14 34t35 15h1327q15 0 35 -14l344 -345q14 -19 14 -34v-377q84 -45 134 -129t50 -182z" />
    <glyph glyph-name="uniE537" unicode="&#xe537;" horiz-adv-x="2482" 
d="M1833 41q0 -88 -88 -113v-49h-41v49q-45 6 -70 31t-37 76l52 10q15 -37 29 -51t40 -14t44 17q38 37 3 81l-22 14q-22 14 -52 26q-31 12 -49 35q-18 21 -18 55t17 55t28 28q27 10 35 12v47h41v-47q52 -7 80 -61l-45 -25q-24 37 -50 37t-40 -12t-14 -32q0 -18 10 -26
t59 -32q50 -24 61 -41q27 -27 27 -70zM1711 -240q145 0 249 104t104 250t-103 250t-249 104t-250 -104t-104 -250t104 -250t249 -104zM1253 653q0 -77 -16 -90q-72 -65 -135 -122t-89 -80l-26 -23q-27 -14 -49 -4t-28 36q-6 27 10 40q15 14 125 112t110 103v516q0 47 49 47
t49 -47v-488zM1152 -88q118 0 200 20q-86 182 -12 345q30 65 86 121q118 118 286 118q91 0 164 -37q16 74 16 144q0 145 -56 277t-152 226q-96 96 -228 152t-300 57t-333 -95q-164 -96 -260 -260t-96 -332q1 -168 57 -300t152 -228t227 -152t249 -56zM1705 -289
q-173 0 -294 135q-113 -32 -255 -32t-292 64t-258 174q-108 108 -174 258q-64 150 -64 314t64 314t174 258q108 108 258 174q150 64 316 64t316 -64t258 -174q108 -108 173 -258q64 -150 64 -315q0 -90 -25 -197q148 -121 148 -300t-118 -297t-291 -118z" />
    <glyph glyph-name="uniE538" unicode="&#xe538;" horiz-adv-x="2662" 
d="M1760 -124q0 -30 22 -52t53 -22t53 24q22 22 21 52t-23 52t-52 22t-52 -24q-22 -22 -22 -52zM1270 -122q0 30 -22 52t-52 22t-52 -24q-22 -22 -22 -52t22 -52t52 -22t52 24q22 22 22 52zM1835 0q51 0 87 -36t36 -87t-36 -87t-87 -36t-87 36t-36 87t36 87t87 36zM1196 0
q51 0 87 -36t36 -87t-36 -87t-87 -36t-87 36t-36 87t36 87t87 36zM1171 590q0 -26 -24 -25h-270q-25 0 -25 25t25 24h270q24 2 24 -24zM1122 836q0 -26 -24 -25h-418q-25 0 -25 25t25 24h418q24 2 24 -24zM1382 590h613l143 467h-864zM1073 1057q0 -25 -24 -25h-615
q-16 0 -22 12t0 25q6 12 22 12h615q24 1 24 -24zM1835 123q21 -1 35 -15t14 -34t-14 -34t-35 -15h-639q-25 0 -39 19t-8 44l143 455l-159 686h-256q-21 1 -35 15t-14 34t14 34t35 15h294q41 0 48 -39l32 -133h953q25 0 39 -19t8 -44l-172 -566q-11 -35 -47 -34h-652
l-116 -369h571z" />
    <glyph glyph-name="uniE539" unicode="&#xe539;" horiz-adv-x="2637" 
d="M1490 2q62 0 105 43t43 105t-43 104t-104 43t-105 -43t-44 -105t44 -104q42 -43 104 -43zM1492 346q82 0 138 -57q58 -57 58 -139t-58 -140t-140 -58t-138 58q-58 58 -58 140t58 138q58 58 140 58zM1872 444q-162 0 -350 21h-4q-288 29 -427 29t-235 -19l-29 -6v-639
q96 25 249 25t412 -25q260 -25 380 -25t225 19l37 6v639q-96 -25 -258 -25zM508 813q0 -134 58 -252t163 -196v104q0 81 95 99q52 10 141 18q-3 3 -7 5q-82 43 -81 99q0 221 -99 221q-133 0 -164 232q-106 -145 -106 -330zM1638 813q0 226 -155 389q-57 -10 -99 -42t-42 -66
t19 -101q36 -133 -67 -131q-20 0 -67 17q-85 31 -107 17q-22 -15 -22 -69t26 -71q26 -16 125 -4q98 12 119 12q141 0 168 -201q25 -4 41 -4q61 118 61 254zM1073 1378q-247 0 -414 -182q14 -237 119 -235q147 0 148 -271q0 -22 48 -52t60 -48q34 2 116 2t337 -25
q-22 146 -119 148q-16 0 -74 -8t-96 -9q-40 -1 -66 5q-53 12 -68 43q-16 31 -16 84q2 161 185 98q71 -26 81 -14q10 13 8 30q-2 18 -16 70t-12 90t43 79q40 40 103 60q-158 135 -367 135zM2228 -170q0 -34 -22 -62t-58 -34q-17 -8 -125 -18t-190 -9q-82 0 -342 25
q-455 43 -610 8l-29 -6q-10 -2 -32 -2t-54 20q-37 31 -37 78v416q-147 92 -233 242t-86 304t52 278q52 123 142 212q89 89 212 142t257 53t257 -53t212 -142t142 -212t53 -256t-56 -265q85 -6 205 -6t191 16l28 6q10 2 32 2t54 -20q37 -31 37 -78v-639z" />
    <glyph glyph-name="uniE540" unicode="&#xe540;" horiz-adv-x="1954" 
d="M1204 554q0 -116 -81 -199l-343 -342q-78 -79 -194 -79t-201 79q-85 87 -85 203t85 197l170 171l1 3q17 16 41 16q25 -1 41 -17t16 -38t-20 -43l-171 -168q-51 -59 -51 -125t51 -115t123 -49t117 50l336 335q52 45 52 119t-52 121q-14 11 -14 37t16 42t42 16t37 -16h3
q81 -82 81 -198zM1654 1004q0 -114 -83 -200l-168 -167q-17 -17 -41 -17t-39 17t-15 39t14 38h2l166 170q52 52 52 122t-52 118q-54 49 -116 49t-121 -49l-340 -338q-46 -52 -46 -122t46 -117q19 -17 19 -39t-18 -38t-39 -17q-22 0 -40 16h-3q-80 83 -80 199t83 198l337 334
q86 87 200 87t199 -87q83 -82 83 -196z" />
  </font>
</defs>
</svg>
